<svg width="27" height="18" viewBox="0 0 27 18" fill="none" xmlns="http://www.w3.org/2000/svg">
    <path
        d="M11.6349 3.67309H10.3201C10.2694 3.67318 10.2195 3.65985 10.1757 3.63449C10.1318 3.60913 10.0957 3.57265 10.0707 3.52877C10.0458 3.4849 10.033 3.43523 10.0338 3.38486C10.0346 3.33448 10.0487 3.28523 10.075 3.24212L11.6591 0.623341C11.685 0.580079 11.6989 0.53078 11.6994 0.48045C11.7 0.430119 11.6871 0.380551 11.662 0.33678C11.637 0.293007 11.6008 0.25659 11.557 0.231227C11.5132 0.205863 11.4634 0.192458 11.4128 0.19237H7.9957C7.92026 0.1927 7.84789 0.222547 7.7944 0.27545C7.74092 0.328353 7.71054 0.400055 7.70977 0.475036L7.67403 6.98903C7.67403 8.00307 7.02304 8.69009 5.98146 8.69009C4.9603 8.69009 4.31186 8.00054 4.31186 6.98903C4.32207 4.81896 4.33279 2.64848 4.34377 0.477571C4.34403 0.440178 4.33675 0.40312 4.32246 0.368526C4.30816 0.33393 4.2871 0.302481 4.26055 0.27598C4.234 0.24948 4.20234 0.228453 4.16762 0.214104C4.13278 0.199756 4.0955 0.19237 4.05785 0.19237H0.285933C0.24815 0.192369 0.210885 0.199796 0.17591 0.214223C0.141063 0.22865 0.109404 0.249792 0.0828542 0.276427C0.056304 0.303061 0.03524 0.334661 0.0210714 0.369404C0.00690276 0.404145 -0.000248689 0.441339 6.60137e-06 0.478839L0.0383062 6.92438C0.043412 10.542 2.27337 12.546 5.98146 12.546C9.71253 12.546 11.9463 10.542 11.9463 6.92438C11.937 5.93485 11.9284 4.9453 11.9208 3.95575C11.9205 3.88067 11.8901 3.80878 11.8367 3.75581C11.7831 3.70284 11.7105 3.67309 11.6349 3.67309Z"
        fill="none" />
    <path
        d="M26.083 5.76335C25.9983 4.62165 25.6003 3.52479 24.9322 2.59184C24.264 1.6589 23.3514 0.925505 22.2932 0.471281C21.4507 0.129555 20.5446 -0.0295805 19.6352 0.00452087C18.7257 0.0386223 17.8343 0.265174 17.0202 0.669021C16.7683 0.795119 16.526 0.939152 16.2951 1.09999C16.2522 1.1293 16.2022 1.14643 16.1501 1.14953C16.0982 1.15263 16.0463 1.14158 16.0003 1.11758C15.9542 1.09358 15.9155 1.05753 15.8886 1.01333C15.8615 0.969132 15.8472 0.918453 15.8471 0.86676V0.476352C15.8471 0.401047 15.817 0.328828 15.7634 0.27558C15.7097 0.222333 15.637 0.192418 15.5612 0.192418H13.1908C13.1374 0.192179 13.085 0.206807 13.0395 0.234649C12.994 0.26249 12.9573 0.302428 12.9335 0.349935C12.9097 0.397442 12.8998 0.450616 12.9049 0.503431C12.91 0.556243 12.9299 0.606582 12.9623 0.64874C13.6184 1.50476 14.2736 2.36122 14.928 3.21809C14.9605 3.26016 14.9804 3.31038 14.9855 3.36308C14.9906 3.41578 14.9808 3.46886 14.9572 3.51632C14.9335 3.56378 14.897 3.60374 14.8517 3.63167C14.8064 3.6596 14.7542 3.67441 14.7008 3.67441H13.3184C13.2426 3.67441 13.1699 3.70432 13.1163 3.75757C13.0626 3.81081 13.0325 3.88304 13.0325 3.95834V17.0382C13.0325 17.1137 13.0626 17.1858 13.1163 17.239C13.1699 17.2923 13.2426 17.3222 13.3184 17.3222H16.5325C16.5702 17.3224 16.6075 17.3152 16.6423 17.301C16.6772 17.2868 16.7088 17.2659 16.7356 17.2395C16.7623 17.2132 16.7834 17.1817 16.7979 17.1472C16.8123 17.1128 16.8197 17.0756 16.8197 17.0382V12.0771C16.8205 12.0298 16.833 11.9834 16.8564 11.9421C16.8797 11.9009 16.9131 11.8661 16.9534 11.8409C16.9937 11.8157 17.0398 11.8009 17.0873 11.7979C17.1349 11.7949 17.1824 11.8037 17.2257 11.8236C18.0171 12.195 19.5501 12.7323 21.3103 12.3141C24.1249 11.6372 26.2897 8.80296 26.083 5.76335ZM19.9228 8.82071C17.9864 8.82071 16.747 6.74444 18.1192 4.61367C18.1452 4.57282 18.1812 4.53923 18.2238 4.51607C20.4206 3.30808 22.3085 4.56297 22.3085 6.43009C22.3098 7.78764 21.3116 8.82071 19.9228 8.82071Z"
        fill="none" />
    <path
        d="M10.8549 14.0799H1.78703C1.44584 14.0799 1.16923 14.3545 1.16923 14.6934V16.0243C1.16923 16.3631 1.44584 16.6378 1.78703 16.6378H10.8549C11.1961 16.6378 11.4727 16.3631 11.4727 16.0243V14.6934C11.4727 14.3545 11.1961 14.0799 10.8549 14.0799Z"
        fill="none" />
    <style>
        path { fill: #000; }
        @media (prefers-color-scheme: dark) {
        path { fill: #FFF; }
        }
    </style>
</svg>