<svg width="60" height="28" viewBox="0 0 60 28" fill="none" xmlns="http://www.w3.org/2000/svg">
<path d="M38.5711 10.3369H32.0972L30.6052 13.1722C30.401 13.6127 30.0635 14.1064 30.0635 14.1064H29.9954C29.9954 14.1064 29.6905 13.6097 29.4537 13.1722L27.9618 10.3369H21.4938L26.5764 18.1745L21.5145 26.021H27.873L29.5899 22.7452C29.7586 22.4407 29.9954 21.8524 29.9954 21.8524H30.0635C30.0635 21.8524 30.3003 22.4407 30.4691 22.7452L32.2126 26.021H38.577L33.5151 18.1745L38.5681 10.3369H38.5711Z" fill="white"/>
<path d="M9.89885 22.0298C8.10498 22.0298 6.68705 20.6491 6.68705 18.9343C6.68705 17.4798 7.4715 16.3592 8.10794 15.6881C10.7218 16.8825 13.1136 17.7784 13.1136 19.3069C13.1136 21.0601 11.8822 22.0298 9.90181 22.0298H9.89885ZM10.0883 5.94947C11.8437 5.94947 12.8916 6.9192 12.8916 8.41222C12.8916 10.0531 12.1812 11.2859 11.9591 11.6969C9.60579 10.6887 7.66391 9.7929 7.66391 8.03971C7.66391 6.88372 8.40988 5.94947 10.0913 5.94947H10.0883ZM16.6629 14.0088C16.9234 13.6718 19.2767 10.8011 19.2767 7.92736C19.2767 2.96343 15.2065 0.202072 10.2363 0.202072C3.99625 0.202072 1.26992 4.00706 1.26992 7.88893C1.26992 10.1654 2.27934 11.7708 3.69727 13.0007C2.87434 13.6363 0 16.0606 0 19.4931C0 23.7475 3.39829 27.7772 9.89885 27.7772C16.3994 27.7772 19.7977 23.7091 19.7977 19.6439C19.7977 16.9565 18.4538 15.2417 16.6599 14.0088H16.6629Z" fill="white"/>
<path d="M50.107 22.0298C48.3131 22.0298 46.8952 20.6491 46.8952 18.9344C46.8952 17.4798 47.6797 16.3593 48.3161 15.6881C50.9299 16.8826 53.3218 17.7784 53.3218 19.3069C53.3218 21.0601 52.0874 22.0298 50.11 22.0298H50.107ZM50.2935 5.94948C52.0489 5.94948 53.0968 6.91921 53.0968 8.41223C53.0968 10.0531 52.3863 11.2859 52.1643 11.6969C49.811 10.6887 47.8691 9.79291 47.8691 8.03971C47.8691 6.88373 48.6151 5.94948 50.2965 5.94948H50.2935ZM56.8681 14.0089C57.1286 13.6718 59.4819 10.8011 59.4819 7.92737C59.4819 2.96343 55.4087 0.205036 50.4415 0.205036C44.2014 0.205036 41.4751 4.01003 41.4751 7.89189C41.4751 10.1684 42.4845 11.7738 43.9025 13.0036C43.0795 13.6393 40.2022 16.0636 40.2022 19.4961C40.2022 23.7505 43.6005 27.7801 50.1011 27.7801C56.6016 27.7801 59.9999 23.712 59.9999 19.6469C59.9999 16.9594 58.656 15.2447 56.8621 14.0118L56.8681 14.0089Z" fill="white"/>
</svg>
