<svg width="60" height="39" viewBox="0 0 60 39" fill="none" xmlns="http://www.w3.org/2000/svg">
<path d="M39.3678 0H21.6322C20.1907 0 19 1.26027 19 2.7726V20.2274C19 21.7397 20.1907 23 21.6322 23H39.3678C40.8093 23 42 21.7397 42 20.2274V2.7726C42 1.26027 40.8093 0 39.3678 0ZM41.436 13.2329C41.436 13.2959 41.3733 13.3589 41.3733 13.4219C41.0599 14.1781 40.5586 14.8712 39.9319 15.3123C39.3052 15.8164 38.6158 16.1315 37.8011 16.1945C37.4251 16.1945 36.9864 16.1945 36.6104 16.0685C36.0463 15.9425 35.1689 15.4384 34.1662 14.7452C33.2888 14.1151 32.2234 13.3589 31.158 12.4767C31.0954 12.2877 31.158 12.2877 31.346 12.3507L33.4142 13.5479L34.1662 13.989C35.7956 14.8712 37.049 15.3123 37.9891 14.7452C38.9292 14.2411 39.4305 13.1068 39.4932 11.9096C39.5559 10.7753 38.9918 9.89315 37.8638 9.2C37.3624 8.88493 36.7984 8.82192 36.109 8.88493C35.733 8.94795 35.3569 9.01096 34.9809 9.13699C34.8556 9.2 34.6676 9.26301 34.5422 9.32603C34.1035 9.57808 33.6648 9.83014 33.2262 10.1452C32.2234 10.9014 31.2207 11.7836 30.1553 12.7288C28.6512 14.1151 27.1471 15.2493 25.5804 15.8795C24.6403 16.2575 23.7003 16.3205 22.8229 16.1315C21.4441 15.8795 20.3161 14.9342 19.6894 13.674C19.564 13.4849 19.4387 13.0438 19.376 12.8548C19.376 12.8548 19.376 12.8548 19.376 12.7918C19.3134 12.4137 19.2507 12.0356 19.2507 11.6575C19.2507 11.2164 19.3134 10.7123 19.4387 10.3342C19.8774 8.7589 21.1935 7.49863 22.7602 7.18356C23.0109 7.12055 23.2616 7.12055 23.4496 7.12055H23.5123C24.327 7.12055 25.1417 7.3726 25.7684 7.8137C27.2725 8.63288 28.7139 9.95616 29.9673 10.9644C29.9673 11.0904 29.9046 11.1534 29.7793 11.1534L28.6512 10.3973C28.2125 10.1452 27.7738 9.83014 27.2725 9.57808C25.455 8.56986 23.3243 7.75069 22.0082 9.76712C21.0681 11.5315 21.8828 13.4219 23.3243 14.2411C23.4496 14.3041 23.5749 14.3671 23.7003 14.4301C24.0136 14.4301 24.2016 14.4301 24.327 14.4932C24.8283 14.5562 25.3297 14.5562 25.8311 14.3671C26.3951 14.1781 26.9591 13.863 27.5858 13.4849C28.0245 13.2329 28.4632 12.9178 28.9019 12.5397C30.594 11.0274 32.2861 9.45205 33.9155 8.31781C34.5422 7.93973 35.1689 7.62466 35.733 7.43562C36.109 7.30959 36.4223 7.18356 36.861 7.18356C37.5504 7.05753 38.2398 7.12055 38.8665 7.3726C39.6812 7.75068 40.4959 8.31781 41.0599 9.32603C41.1853 9.57808 41.3106 9.83014 41.436 10.1452C41.624 10.6493 41.6866 11.1534 41.6866 11.7205C41.6866 12.2247 41.5613 12.7918 41.436 13.2329Z" fill="white"/>
<path d="M9.67742 38.6785L8.99064 37.2425H3.55879L2.87201 38.6785H0L4.37045 30.1249H8.24142L12.5494 38.6785H9.67742ZM8.11654 35.3694L6.55567 32.1228H6.05619L4.49532 35.3694H8.11654ZM12.8616 30.1249H17.4194L19.9168 34.5578L22.3517 30.1249H26.847V38.6785H24.4121L24.4745 32.3101H24.0999L19.9792 38.4912L15.8585 32.3101H15.2966L15.359 38.6785H12.924V30.1249H12.8616ZM27.9709 30.1249H37.0864V32.1228H30.4058V33.3715H36.7118V35.2445H30.4058V36.6181H37.0864V38.6785H27.9709V30.1249ZM37.3985 30.1249H40.7076L43.3923 33.5588L45.9521 30.1249H49.1987L44.7034 35.6191V38.616H42.1436V35.6816L37.3985 30.1249ZM54.3809 30C56.129 30 57.3777 30.0624 58.0021 30.1249C58.9386 30.2497 59.5629 30.7492 59.7503 31.5609C59.8751 32.1228 60 33.0593 60 34.3704C60 35.6816 59.9376 36.6805 59.7503 37.18C59.5629 37.9917 58.9386 38.4912 58.0021 38.616C57.3153 38.6785 56.129 38.7409 54.3809 38.7409C52.5702 38.7409 51.384 38.6785 50.6972 38.616C49.7607 38.4912 49.1363 37.9917 48.949 37.18C48.8241 36.6181 48.6993 35.6816 48.6993 34.308C48.6993 32.9969 48.7617 32.0604 48.949 31.4984C49.1363 30.6868 49.7607 30.1873 50.6972 30.0624C51.4464 30.0624 52.6327 30 54.3809 30ZM54.4433 32.2477C53.1321 32.2477 52.3205 32.3101 52.0708 32.3725C51.7586 32.435 51.5713 32.6223 51.4464 32.9344C51.384 33.2466 51.3215 33.8085 51.3215 34.6826C51.3215 35.1821 51.3215 35.5567 51.384 35.8065C51.5088 36.2435 51.7586 36.4932 52.3205 36.5557C52.6951 36.6181 53.4443 36.6181 54.5057 36.6181C55.5047 36.6181 56.1915 36.6181 56.5036 36.5557C56.8158 36.4932 57.0656 36.4308 57.2529 36.3059C57.3777 36.1811 57.5026 35.9938 57.565 35.8065C57.6275 35.5567 57.6275 35.1821 57.6275 34.6826C57.6275 34.0583 57.6275 33.6212 57.565 33.3091C57.5026 32.9969 57.4402 32.8096 57.3153 32.6847C57.1904 32.4974 56.9407 32.3725 56.6909 32.3725C56.3163 32.2477 55.5671 32.2477 54.4433 32.2477Z" fill="white"/>
<mask id="mask0_268_1543" style="mask-type:luminance" maskUnits="userSpaceOnUse" x="0" y="30" width="60" height="9">
<path d="M9.67742 38.6785L8.99064 37.2425H3.55879L2.87201 38.6785H0L4.37045 30.1249H8.24142L12.5494 38.6785H9.67742ZM8.11654 35.3694L6.55567 32.1228H6.05619L4.49532 35.3694H8.11654ZM12.8616 30.1249H17.4194L19.9168 34.5578L22.3517 30.1249H26.847V38.6785H24.4121L24.4745 32.3101H24.0999L19.9792 38.4912L15.8585 32.3101H15.2966L15.359 38.6785H12.924V30.1249H12.8616ZM27.9709 30.1249H37.0864V32.1228H30.4058V33.3715H36.7118V35.2445H30.4058V36.6181H37.0864V38.6785H27.9709V30.1249ZM37.3985 30.1249H40.7076L43.3923 33.5588L45.9521 30.1249H49.1987L44.7034 35.6191V38.616H42.1436V35.6816L37.3985 30.1249ZM54.3809 30C56.129 30 57.3777 30.0624 58.0021 30.1249C58.9386 30.2497 59.5629 30.7492 59.7503 31.5609C59.8751 32.1228 60 33.0593 60 34.3704C60 35.6816 59.9376 36.6805 59.7503 37.18C59.5629 37.9917 58.9386 38.4912 58.0021 38.616C57.3153 38.6785 56.129 38.7409 54.3809 38.7409C52.5702 38.7409 51.384 38.6785 50.6972 38.616C49.7607 38.4912 49.1363 37.9917 48.949 37.18C48.8241 36.6181 48.6993 35.6816 48.6993 34.308C48.6993 32.9969 48.7617 32.0604 48.949 31.4984C49.1363 30.6868 49.7607 30.1873 50.6972 30.0624C51.4464 30.0624 52.6327 30 54.3809 30ZM54.4433 32.2477C53.1321 32.2477 52.3205 32.3101 52.0708 32.3725C51.7586 32.435 51.5713 32.6223 51.4464 32.9344C51.384 33.2466 51.3215 33.8085 51.3215 34.6826C51.3215 35.1821 51.3215 35.5567 51.384 35.8065C51.5088 36.2435 51.7586 36.4932 52.3205 36.5557C52.6951 36.6181 53.4443 36.6181 54.5057 36.6181C55.5047 36.6181 56.1915 36.6181 56.5036 36.5557C56.8158 36.4932 57.0656 36.4308 57.2529 36.3059C57.3777 36.1811 57.5026 35.9938 57.565 35.8065C57.6275 35.5567 57.6275 35.1821 57.6275 34.6826C57.6275 34.0583 57.6275 33.6212 57.565 33.3091C57.5026 32.9969 57.4402 32.8096 57.3153 32.6847C57.1904 32.4974 56.9407 32.3725 56.6909 32.3725C56.3163 32.2477 55.5671 32.2477 54.4433 32.2477Z" fill="white"/>
</mask>
<g mask="url(#mask0_268_1543)">
<path d="M60.0624 30H0V38.8033H60.0624V30Z" fill="white"/>
</g>
</svg>
