<svg width="120" height="38" viewBox="0 0 120 38" fill="none" xmlns="http://www.w3.org/2000/svg">
<path d="M72.528 16.8124C72.528 15.7433 72.4992 14.5881 72.552 13.4355C72.5628 13.1973 72.834 12.849 73.0572 12.7641C75.4572 11.8483 77.916 11.4759 80.424 12.2461C83.064 13.0542 84.5832 15.0619 84.7104 17.9562C84.7872 19.7207 84.7825 21.4902 84.7536 23.2547C84.6996 26.5113 83.6148 28.0224 80.5368 28.5126C78.689 28.8036 76.81 28.7967 74.964 28.4923C72.0972 28.0097 70.902 26.3517 70.9548 23.6182C70.9992 21.3585 72.696 19.5319 75.2748 19.1025C76.3638 18.9395 77.4629 18.8629 78.5628 18.8733C79.4256 18.8733 79.5228 18.4578 79.296 17.7396C78.9708 16.7123 78.2784 16.1069 77.274 16.1854C75.756 16.3095 74.25 16.5781 72.528 16.8124ZM79.5888 22.0564C79.6944 21.3762 79.4412 21.0165 78.6096 21.0279C76.9536 21.0481 76.2816 21.4851 76.2492 22.7341C76.2168 23.983 76.722 24.5897 77.7756 24.5986C78.8592 24.6062 79.56 23.6651 79.5888 22.0564Z" fill="#8447CB"/>
<path d="M106.968 23.4333C108.296 23.9463 109.534 24.4264 110.772 24.9001C110.894 24.9505 111.024 24.9771 111.156 24.9787C111.836 24.9647 112.655 25.0673 112.864 24.1718C113.071 23.2965 112.25 23.1445 111.72 22.8811C110.952 22.5011 110.139 22.2262 109.368 21.8576C106.954 20.7062 106.179 19.3002 106.406 16.5515C106.568 14.5895 107.966 12.9947 110.15 12.4273C112.064 11.8986 114.091 12.0774 115.895 12.9339C116.475 13.2075 116.777 13.5445 116.735 14.2525C116.682 15.0391 116.722 15.8321 116.722 16.7263C115.771 16.4173 114.931 16.0778 114.061 15.8891C113.522 15.7742 112.965 15.7947 112.434 15.9486C112.095 16.0499 111.656 16.4717 111.619 16.7947C111.587 17.081 111.986 17.5547 112.303 17.7283C113.434 18.3426 114.641 18.7999 115.761 19.4345C117.179 20.2388 117.994 21.5384 118.077 23.2623C118.211 25.9819 116.711 27.9794 113.94 28.519C111.787 28.937 109.631 28.7787 107.659 27.5994C107.382 27.4322 107.023 27.0927 107.005 26.8191C106.92 25.6652 106.968 24.5062 106.968 23.4333Z" fill="#8447CB"/>
<path d="M95.8128 11.7028H93.7907V6.02051H88.5203V23.1699C88.521 23.5962 88.5673 24.0212 88.6583 24.4366C89.2174 27.0231 91.4543 28.9586 94.1328 28.9586H94.1722H94.191H95.9462C96.8695 28.9586 97.7838 28.7665 98.6372 28.3934C99.4907 28.0201 100.266 27.4732 100.919 26.7837C101.573 26.0942 102.09 25.2756 102.444 24.3748C102.797 23.4739 102.979 22.5084 102.979 21.5334V19.2673C102.979 17.2611 102.224 15.337 100.88 13.9183C99.5364 12.4998 97.7131 11.7028 95.8128 11.7028ZM93.7907 23.94V15.6852C94.2143 15.5965 95.939 15.3052 96.5856 16.221C97.1032 16.9117 97.4417 17.7328 97.568 18.6036C97.6468 19.1585 97.6808 19.7196 97.6692 20.2806C97.6513 22.3212 97.362 25.2941 95.4662 25.0661C94.2134 24.9141 93.8758 24.32 93.7907 23.94Z" fill="#8447CB"/>
<path d="M59.7684 23.6234V6.5437H54.1824V23.6234V27.2841V28.6534H69.0155V23.6234H59.7684Z" fill="#8447CB"/>
<path d="M21.0887 35.3401H18.1487C18.1138 34.9955 18.0551 34.6763 18.0538 34.3559C18.0538 29.8706 18.0178 25.3841 18.0611 20.8988C18.1007 16.8037 20.3158 13.6851 23.7347 12.7693C27.8303 11.6711 32.1251 14.2893 33.1318 18.4833C34.2118 22.9901 31.7435 27.4576 27.5411 28.4481C26.6007 28.6593 25.6305 28.6765 24.6838 28.4988C22.0138 28.0035 21.4438 26.9687 21.8783 23.6665C22.1278 23.8501 22.3498 24.0021 22.5587 24.1731C24.6598 25.8527 26.8787 25.9465 28.6211 24.4379C30.1811 23.08 30.7043 20.5783 29.8463 18.5466C28.9678 16.4667 27.0178 15.3673 24.9598 15.7916C22.7075 16.2539 21.2098 18.0957 21.1558 20.781C21.0695 25.0535 21.1078 29.3285 21.0935 33.6022C21.0875 34.1405 21.0887 34.6801 21.0887 35.3401Z" fill="white"/>
<path d="M1.4304 5.82666H4.3536C4.3536 6.87546 4.3428 7.87613 4.3536 8.87679C4.404 12.9301 4.3452 16.9961 4.5576 21.0431C4.6992 23.7449 6.6984 25.4841 9.1176 25.4524C10.1875 25.4373 11.2165 25.0167 12.0173 24.2676C12.818 23.5185 13.3369 22.4906 13.4796 21.3712C13.7496 19.1381 12.9264 17.2153 11.1516 16.2323C9.33477 15.2266 7.5972 15.4977 6 16.8467C5.754 17.0544 5.5008 17.252 5.058 17.6067C5.058 16.4451 4.986 15.4533 5.0964 14.4831C5.136 14.1259 5.5476 13.7231 5.886 13.5115C8.244 12.0789 10.6584 12.1321 12.954 13.5837C15.3972 15.1278 16.6968 17.4737 16.65 20.5289C16.584 24.9318 13.4376 28.4734 9.54244 28.5899C4.9392 28.728 1.6404 25.7969 1.4676 21.0241C1.2888 16.0119 1.4304 10.9769 1.4304 5.82666Z" fill="white"/>
<path d="M33.918 20.4719C33.93 16.0145 37.3464 12.5248 41.6604 12.5616C45.9228 12.597 49.1928 16.1336 49.1917 20.7037C49.1917 25.2257 45.8317 28.6026 41.3388 28.5912C37.2408 28.5811 33.906 24.9318 33.918 20.4719ZM41.6124 15.689C39 15.713 37.0177 17.86 37.0344 20.6467C37.0513 23.3561 39.0468 25.4524 41.622 25.46C44.0304 25.4714 46.1208 23.2282 46.11 20.6467C46.098 17.9297 44.04 15.6674 41.6124 15.689Z" fill="white"/>
</svg>
