<svg width="60" height="21" viewBox="0 0 60 21" fill="none" xmlns="http://www.w3.org/2000/svg">
  <path
    d="M53.1087 0.36556C49.4483 0.36556 46.2868 3.07859 46.2868 6.88696C46.2868 10.9977 49.5034 13.1075 52.3603 13.1075C52.7762 13.1075 53.2472 13.025 53.5246 12.888L53.6353 12.9972L49.3923 19.9019H53.6358L58.9053 10.5588C59.4875 9.48976 59.9034 8.25688 59.9034 6.88696C59.9034 3.02298 56.7691 0.36556 53.1087 0.36556ZM53.1097 10.0106C51.2788 10.0106 50.0032 8.61338 50.0032 6.88696C50.0032 5.16053 51.2798 3.79061 53.1097 3.79061C54.9397 3.79061 56.2157 5.13322 56.2157 6.88696C56.2157 8.64069 54.9412 10.0106 53.1097 10.0106Z"
    fill="white" />
  <path d="M16.4979 5.49072H12.8926V19.9029H16.4979V5.49072Z" fill="white" />
  <path
    d="M28.2658 5.49072L24.8272 15.6561H24.6049L21.1381 5.49072H17.3665L22.6921 19.9039H26.7684L32.1212 5.49072H28.2658Z"
    fill="white" />
  <path
    d="M38.7645 5.13421C34.4936 5.13421 31.4154 8.23056 31.4154 12.7792C31.4154 17.0817 34.4658 20.2599 38.7645 20.2599C42.5361 20.2599 45.1433 18.3409 45.8639 15.4094H42.5083C42.0095 16.5881 40.6505 17.4099 38.8757 17.4099C36.5459 17.4099 35.0207 15.9302 34.9096 13.738H46.0029V12.6149C46.0029 8.55926 43.4518 5.13421 38.7645 5.13421ZM34.9651 11.2177C35.1875 9.40882 36.6576 7.98428 38.765 7.98428C40.8724 7.98428 42.3976 9.27277 42.5639 11.2177H34.9651Z"
    fill="white" />
  <path
    d="M0.0964355 19.9039H3.78511V12.1219H11.2731V8.9982H3.78511V3.87403H11.9938V0.72257H0.0964355V19.9039Z"
    fill="white" />
</svg>