<svg width="36" height="60" viewBox="0 0 36 60" fill="none" xmlns="http://www.w3.org/2000/svg">
<path d="M21.513 7.03561C21.513 3.14995 24.6628 0 28.5486 0C32.4343 0 35.5843 3.14995 35.5843 7.03561C35.5843 10.9213 32.4343 14.0712 28.5486 14.0712C24.6628 14.0712 21.513 10.9213 21.513 7.03561Z" fill="white"/>
<path d="M25.5363 18.0378H10.0471C7.38247 18.0378 4.82695 19.0756 2.94273 20.9228C1.05854 22.7699 0 25.2754 0 27.8877C0 30.5 1.05854 33.0055 2.94273 34.8525C4.82695 36.6998 7.38247 37.7374 10.0471 37.7374H25.5363C26.8559 37.7374 28.1623 37.4827 29.3813 36.9877C30.6001 36.4927 31.7079 35.7672 32.6407 34.8525C33.5738 33.9378 34.3138 32.852 34.8187 31.6572C35.3236 30.4621 35.5835 29.1811 35.5835 27.8877C35.5835 26.5942 35.3236 25.3133 34.8187 24.1182C34.3138 22.9231 33.5738 21.8374 32.6407 20.9228C31.7079 20.0081 30.6001 19.2826 29.3813 18.7876C28.1623 18.2926 26.8559 18.0378 25.5363 18.0378Z" fill="white"/>
<path d="M26.2386 41.7074H20.1486C17.6701 41.7074 15.2932 42.6711 13.5406 44.3864C11.7881 46.1016 10.8035 48.4279 10.8035 50.8538C10.8035 53.2795 11.7881 55.6058 13.5406 57.3211C15.2932 59.0363 17.6701 60 20.1486 60H26.2386C28.7172 60 31.0941 59.0363 32.8466 57.3211C34.5992 55.6058 35.5836 53.2795 35.5836 50.8538C35.5836 48.4279 34.5992 46.1016 32.8466 44.3864C31.0941 42.6711 28.7172 41.7074 26.2386 41.7074Z" fill="white"/>
</svg>
