<svg width="120" height="17" viewBox="0 0 120 17" fill="none" xmlns="http://www.w3.org/2000/svg">
<g clip-path="url(#clip0_10_480)">
<mask id="mask0_10_480" style="mask-type:luminance" maskUnits="userSpaceOnUse" x="0" y="0" width="65" height="17">
<path d="M64.5231 0H0V17H64.5231V0Z" fill="white"/>
</mask>
<g mask="url(#mask0_10_480)">
<path d="M6.74744 9.73401C7.18751 9.73401 7.62752 9.73401 8.06759 9.73401C8.17325 9.73401 8.28405 9.72009 8.28665 9.87638C8.28665 10.0141 8.18549 10.0028 8.09333 10.0194C7.62238 10.1062 7.46129 10.2803 7.44905 10.7809C7.4336 11.5907 7.43685 12.4005 7.4407 13.2096C7.4407 13.4255 7.40657 13.5923 7.18941 13.6956C5.6335 14.4373 4.046 14.6617 2.40695 14.0075C0.908363 13.4116 0.0340797 12.0528 -0.000711337 10.3955C-0.0213282 9.41687 0.0952859 8.48983 0.622952 7.65354C1.40961 6.4074 2.53839 5.77902 3.9732 5.69623C4.65742 5.65653 5.31589 5.78231 5.96017 6.00613C6.32482 6.13325 6.66432 6.16108 6.91047 5.77501C6.97165 5.67769 7.06701 5.68231 7.15787 5.70881C7.25968 5.7386 7.25063 5.83398 7.25323 5.91738C7.27707 6.65105 7.30281 7.38473 7.32215 8.1184C7.32215 8.20643 7.39497 8.3415 7.22099 8.36138C7.0857 8.37663 7.00323 8.34417 6.94331 8.19189C6.80362 7.81933 6.60965 7.47085 6.368 7.15828C5.34422 5.87172 3.32312 5.98759 2.30194 7.19536C1.87156 7.70454 1.65766 8.30247 1.53525 8.93743C1.34196 9.93067 1.35098 10.9239 1.7208 11.882C2.24331 13.2348 3.41331 13.9552 4.82944 13.8327C5.15645 13.816 5.47822 13.7412 5.78039 13.6116C6.06902 13.4791 6.22621 13.2752 6.21851 12.9289C6.20367 12.2668 6.21851 11.6046 6.21271 10.9424C6.20946 10.2617 6.05613 10.0909 5.4009 10.0154C5.29719 10.0035 5.13871 10.0439 5.14321 9.87571C5.14321 9.68106 5.31714 9.73863 5.42799 9.73735C5.86736 9.73072 6.30742 9.73468 6.74744 9.73401Z" fill="white"/>
<path d="M27.6284 0.302616C26.1923 1.85204 24.706 3.3485 23.2402 4.87144C21.3319 6.84994 19.4345 8.83971 17.5223 10.8149C17.338 11.0049 17.3818 11.0983 17.5287 11.2684C18.3431 12.2087 19.1458 13.1589 19.9518 14.1064C19.978 14.1298 19.9978 14.1599 20.0091 14.1936C20.0204 14.2273 20.0229 14.2634 20.0163 14.2985C19.6104 14.3567 19.1974 14.3375 18.7825 14.3197C18.6375 14.313 18.5666 14.2163 18.4868 14.121C17.943 13.4807 17.3915 12.8484 16.8612 12.1955C16.668 11.9584 16.552 11.9485 16.3362 12.1697C14.9187 13.6264 13.4871 15.0665 12.0665 16.5193C11.8494 16.7411 11.5736 16.8504 11.3127 16.9987C11.5009 16.661 11.7901 16.4094 12.0472 16.1379C13.0355 15.091 14.0445 14.0627 15.0424 13.0258C15.409 12.6457 15.7627 12.2517 16.1416 11.8849C16.3638 11.6704 16.3297 11.5214 16.1319 11.3135C15.2692 10.4044 14.4181 9.48201 13.5638 8.5636C13.5368 8.52159 13.5133 8.47731 13.4936 8.43114C13.9729 8.42256 14.4213 8.37685 14.8698 8.45102C14.9303 8.46093 14.9838 8.53442 15.0341 8.58342C15.6416 9.20651 16.2627 9.81703 16.8483 10.4619C17.0719 10.7083 17.184 10.6739 17.3934 10.4567C18.756 9.04894 20.1322 7.64981 21.4994 6.24872C22.4619 5.26298 23.4245 4.27661 24.387 3.28957C25.225 2.42745 26.0626 1.56401 26.8997 0.699242C27.0073 0.588665 27.1046 0.461532 27.2624 0.420479C27.2717 0.422731 27.2813 0.422859 27.2906 0.420853C27.2999 0.418846 27.3086 0.414753 27.3162 0.40887C27.3238 0.402986 27.33 0.395456 27.3344 0.386818C27.3388 0.378179 27.3413 0.368644 27.3417 0.358897L27.45 0.292682C27.5073 0.289372 27.573 0.226469 27.6284 0.302616Z" fill="white"/>
<path d="M31.1494 14.298C30.3608 14.298 29.5728 14.29 28.7849 14.3026C28.5271 14.3066 28.4247 14.241 28.4273 13.9517C28.4402 12.3738 28.4376 10.7959 28.4273 9.21798C28.4273 8.97762 28.5085 8.9147 28.7301 8.91604C30.306 8.92312 31.8822 8.92312 33.4584 8.91604C33.7052 8.91604 33.7735 9.00145 33.7677 9.2471C33.7535 9.92253 33.8186 9.83512 33.1879 9.83578C32.1235 9.83578 31.0617 9.84241 29.9948 9.83111C29.7429 9.83111 29.6572 9.90861 29.6579 10.1728C29.6579 11.0171 29.6514 11.0171 30.4709 11.0171C30.922 11.0171 31.3729 11.0223 31.8239 11.0171C31.9973 11.0171 32.0816 11.0535 32.0816 11.26C32.0765 12.093 32.1519 11.9222 31.4444 11.9341C30.9535 11.9414 30.4619 11.9447 29.971 11.9341C29.7506 11.9282 29.6488 11.9904 29.6637 12.2347C29.6811 12.5069 29.672 12.781 29.6708 13.0545C29.6708 13.2147 29.7294 13.2624 29.8943 13.2604C31.112 13.2478 32.3303 13.2538 33.548 13.2418C33.7703 13.2418 33.854 13.3041 33.856 13.5431C33.8611 14.3 33.8695 14.3 33.1428 14.3L31.1494 14.298Z" fill="#38A42A"/>
<path d="M24.2556 11.7092C24.2556 12.1926 24.2427 12.6766 24.2588 13.1593C24.2743 13.599 24.4734 13.7069 24.8632 13.5262C24.9392 13.491 25.0346 13.3712 25.1035 13.4599C25.1387 13.5128 25.1552 13.5764 25.1503 13.6403C25.1454 13.7042 25.1193 13.7644 25.0764 13.8109C24.7491 14.2135 24.3471 14.4558 23.8188 14.3657C23.7021 14.3482 23.5923 14.298 23.5014 14.2208C23.4105 14.1435 23.342 14.042 23.3034 13.9274C23.1867 13.6135 23.1294 13.6003 22.8485 13.8056C22.4548 14.093 22.0516 14.3446 21.5464 14.375C20.4956 14.438 19.9016 13.4818 20.2353 12.4839C20.4454 11.8562 20.9505 11.5669 21.4684 11.3013C21.951 11.0537 22.4561 10.8511 22.9561 10.6392C23.1204 10.5729 23.2009 10.4756 23.1887 10.2869C23.1719 10.0221 23.1887 9.7572 23.1629 9.5003C23.1481 9.33677 23.0824 9.18254 22.9755 9.06051C22.8686 8.93848 22.7262 8.85512 22.5695 8.82292C22.1733 8.73751 21.8151 8.81362 21.5342 9.12815C21.4143 9.2606 21.4408 9.44134 21.4697 9.61088C21.5026 9.80954 21.5342 10.0174 21.3995 10.1876C21.2352 10.4002 21.0129 10.5048 20.7507 10.4074C20.4885 10.3101 20.3345 9.99361 20.3931 9.71349C20.522 9.08778 20.9608 8.75204 21.5084 8.56931C22.0883 8.37794 22.7119 8.37794 23.2918 8.56931C23.8207 8.73684 24.0939 9.14869 24.1886 9.69957C24.2956 10.3644 24.2279 11.0385 24.2556 11.7092ZM23.1958 12.0032C23.1958 11.7198 23.188 11.4357 23.1958 11.1523C23.2035 10.9431 23.1094 10.914 22.9516 10.9802C22.545 11.1504 22.1359 11.3166 21.7919 11.6126C21.52 11.8489 21.3068 12.1171 21.2623 12.5011C21.1979 13.0468 21.5329 13.5705 21.9845 13.6116C22.6056 13.6679 23.1893 13.1964 23.1925 12.6343C23.1938 12.4237 23.1932 12.2138 23.1932 12.0032H23.1958Z" fill="white"/>
<path d="M54.6812 9.89052C55.2949 9.89052 55.9092 9.87398 56.5224 9.89519C57.0452 9.91373 57.3186 10.2263 57.3161 10.7361C57.3161 10.9155 57.2751 11.0334 57.0587 11.0394C56.8753 11.0557 56.6939 11.0865 56.5154 11.1314C56.366 11.1592 56.2695 11.1162 56.2775 10.9427C56.2865 10.7573 56.1906 10.7116 56.0311 10.7123C55.129 10.7123 54.2269 10.7176 53.3288 10.7123C53.1263 10.7123 53.0639 10.7904 53.0664 10.9917C53.0744 11.7068 53.0744 12.4219 53.0664 13.1371C53.0664 13.3456 53.1218 13.4337 53.3437 13.431C54.2229 13.42 55.1035 13.42 55.9852 13.431C56.2151 13.431 56.284 13.3536 56.284 13.1218C56.284 12.5126 56.293 12.5113 55.7043 12.512C55.4184 12.512 55.131 12.508 54.8456 12.5259C54.6407 12.5391 54.5727 12.4504 54.5662 12.2538C54.5492 11.7241 54.5662 11.7028 55.082 11.7061C55.7163 11.7061 56.351 11.7161 56.9852 11.7061C57.2306 11.7022 57.3356 11.7724 57.3231 12.0458C57.3041 12.4656 57.3231 12.8868 57.3181 13.3079C57.3141 13.9912 57.0667 14.2667 56.4045 14.3011C56.0781 14.317 55.7502 14.3057 55.4229 14.3057C54.6347 14.3057 53.847 14.3097 53.0589 14.3057C52.2517 14.3018 51.9763 14.0124 51.9763 13.1801C51.9763 12.4332 51.9763 11.687 51.9763 10.94C51.9808 10.1706 52.2187 9.91635 52.9609 9.8899C53.2468 9.87927 53.5337 9.88394 53.8196 9.88327C54.1059 9.88261 54.3933 9.88327 54.6797 9.88327L54.6812 9.89052Z" fill="#38A42A"/>
<path d="M49.5301 12.6824C50.1035 13.1511 50.6253 13.5782 51.1506 14.0066C51.2286 14.0729 51.371 14.1285 51.34 14.2298C51.299 14.3622 51.1466 14.2808 51.0426 14.296C50.279 14.4205 49.6551 14.1947 49.1538 13.5676C48.9238 13.2796 48.6101 13.0624 48.3375 12.8088C48.2497 12.7225 48.1363 12.6688 48.0154 12.6565C47.2029 12.5711 47.2029 12.5684 47.2042 13.3988C47.2042 13.4511 47.2042 13.5041 47.2042 13.5564C47.2042 14.3403 47.0953 14.4304 46.321 14.2993C46.1695 14.2741 46.1444 14.1867 46.145 14.0596C46.145 12.7565 46.145 11.4542 46.145 10.1529C46.145 9.95891 46.2205 9.87417 46.4215 9.8755C47.6687 9.88275 48.9167 9.8715 50.164 9.88675C50.7438 9.89338 51.0017 10.1834 51.0077 10.7714C51.0077 11.1283 51.0192 11.4865 51.0077 11.8434C50.9887 12.3214 50.8352 12.4943 50.3799 12.5883C50.251 12.6148 50.1175 12.634 49.9861 12.6492C49.8548 12.6644 49.7266 12.6671 49.5301 12.6824ZM48.545 10.6555H48.0238C47.1862 10.6555 47.1958 10.6555 47.1978 11.5202C47.1978 11.7646 47.27 11.856 47.5142 11.8514C48.094 11.8368 48.6796 11.8473 49.2621 11.8441C50.0301 11.8407 50.0231 11.8394 50.0116 11.0621C50.0076 10.778 49.8761 10.6647 49.6183 10.6595C49.2608 10.6535 48.9032 10.6555 48.545 10.6555Z" fill="#38A42A"/>
<path d="M11.4488 10.7751C10.9063 10.7751 10.3632 10.7831 9.82136 10.7712C9.6152 10.7666 9.55332 10.8374 9.57586 11.0439C9.64673 11.6889 9.77303 12.3213 10.1809 12.8318C10.8857 13.7164 12.2071 13.6588 12.9319 12.7311C13.0537 12.5755 13.1671 12.4133 13.2818 12.2524C13.2999 12.2203 13.3294 12.1967 13.3642 12.1865C13.3989 12.1764 13.4362 12.1805 13.468 12.1981C13.5575 12.2358 13.5447 12.3067 13.5324 12.3828C13.2521 14.0256 10.8876 14.9652 9.6126 13.9409C9.02179 13.4674 8.7686 12.8073 8.68613 12.0869C8.58368 11.1963 8.68164 10.3249 9.17838 9.54553C9.89478 8.41989 11.4675 8.07224 12.4713 8.82311C13.055 9.25946 13.2392 9.91039 13.3268 10.6036C13.3501 10.7838 13.2251 10.7725 13.1072 10.7725C12.554 10.7734 12.0012 10.7743 11.4488 10.7751ZM10.7962 10.3434H11.8089C11.9146 10.3434 12.0068 10.3381 12.0222 10.1858C12.0866 9.55678 11.5628 8.94694 10.9508 8.92773C10.0591 8.9039 9.79107 9.50249 9.6107 10.1706C9.56687 10.3335 9.67512 10.3401 9.78333 10.3401L10.7962 10.3434Z" fill="white"/>
<path d="M38.7776 12.7239V10.3064C38.7776 9.87538 38.7776 9.87538 39.2028 9.87143C39.2949 9.87143 39.3877 9.87805 39.4792 9.87143C39.6724 9.85885 39.7543 9.94492 39.7537 10.1489C39.7498 11.4423 39.7498 12.7354 39.7537 14.0284C39.7537 14.2098 39.6982 14.2893 39.5088 14.3012C39.3623 14.3157 39.2145 14.2997 39.0741 14.2542C38.9338 14.2087 38.8038 14.1346 38.6919 14.0363C37.6965 13.2 36.6849 12.381 35.676 11.5632C35.6193 11.5168 35.562 11.4109 35.4743 11.4606C35.3964 11.5043 35.417 11.6102 35.4164 11.693C35.4164 12.4505 35.4074 13.2073 35.4228 13.9642C35.4286 14.229 35.3404 14.3078 35.0891 14.3012C34.3282 14.282 34.4564 14.3522 34.4525 13.6391C34.4461 12.4935 34.457 11.3473 34.4448 10.2012C34.4448 9.9363 34.5331 9.8608 34.7805 9.86018C35.0439 9.84981 35.3019 9.93989 35.5046 10.1131C36.5297 10.9626 37.5721 11.7903 38.6088 12.6253C38.6632 12.6613 38.7196 12.6943 38.7776 12.7239Z" fill="#38A42A"/>
<path d="M43.1207 14.2992C42.4661 14.2992 41.8115 14.2873 41.1569 14.3045C40.8992 14.3118 40.8128 14.2138 40.8135 13.9642C40.8174 12.692 40.8174 11.4197 40.8135 10.1476C40.8135 9.94891 40.8934 9.86945 41.0912 9.87012C42.4442 9.87541 43.792 9.87937 45.1424 9.87012C45.5238 9.87012 45.3872 10.1396 45.4117 10.3336C45.4407 10.5555 45.3866 10.6812 45.1205 10.6773C44.1592 10.6634 43.1973 10.6773 42.2361 10.6673C41.9783 10.6673 41.8946 10.7515 41.9055 11.0116C41.9346 11.7208 41.8411 11.5957 42.4725 11.6076C42.8713 11.6129 43.2701 11.6155 43.6689 11.6036C43.8796 11.597 43.955 11.6698 43.9556 11.893C43.9556 12.4141 43.9679 12.4128 43.4563 12.4108C43.0266 12.4108 42.5968 12.4194 42.1678 12.4108C41.9899 12.4108 41.9101 12.4598 41.9101 12.6598C41.9307 13.6119 41.7773 13.4212 42.6323 13.4358C43.4711 13.4503 44.31 13.4503 45.1488 13.4358C45.4117 13.4311 45.5025 13.5291 45.471 13.7841C45.4619 13.8677 45.4619 13.9521 45.471 14.0357C45.4942 14.2476 45.3969 14.3098 45.2036 14.3078C44.5078 14.3012 43.812 14.3078 43.1161 14.3078L43.1207 14.2992Z" fill="#38A42A"/>
<path d="M59.5151 13.2483C59.6706 12.5862 59.3862 12.1306 58.9184 11.6863C58.4031 11.1963 57.9283 10.6587 57.432 10.1448C57.376 10.0866 57.2866 10.0336 57.32 9.94022C57.3535 9.8469 57.461 9.88065 57.5369 9.87402C58.5875 9.8204 58.5865 9.82174 59.3027 10.6136C59.5036 10.8368 59.713 11.052 59.905 11.2824C60.0494 11.4559 60.1629 11.4758 60.3243 11.2963C60.6502 10.9348 61.0175 10.609 61.3234 10.2309C61.5603 9.94022 61.8212 9.81578 62.1745 9.87073C62.3789 9.90247 62.6798 9.75353 62.7638 9.95214C62.8277 10.1117 62.5394 10.2627 62.4009 10.4084C61.8726 10.9646 61.3374 11.5142 60.7951 12.0571C60.7261 12.1181 60.6716 12.1943 60.6352 12.2801C60.5987 12.3658 60.5817 12.4589 60.5852 12.5524C60.5977 13.0358 60.5852 13.5198 60.5937 14.0032C60.5977 14.2018 60.5247 14.2767 60.3283 14.2886C59.5136 14.3362 59.5146 14.3422 59.5151 13.4979C59.5156 13.4165 59.5151 13.3338 59.5151 13.2483Z" fill="#38A42A"/>
<path d="M64.509 11.0515C64.6069 11.6017 64.1866 11.9844 63.6713 11.9785C63.4339 11.9721 63.2085 11.8708 63.0426 11.6963C62.8767 11.5217 62.7837 11.2875 62.7837 11.0435C62.7837 10.5548 63.2165 10.1165 63.7188 10.0986C64.1621 10.0821 64.511 10.5019 64.509 11.0515ZM63.321 11.0217C63.3704 10.8833 63.2095 10.6343 63.4174 10.541C63.6069 10.4562 63.8617 10.4489 64.0257 10.6151C64.1791 10.7714 64.1041 10.9316 63.9612 11.1058C63.8368 11.2594 64.0297 11.4071 64.1246 11.5249C64.1891 11.607 64.2451 11.4945 64.2796 11.4395C64.481 11.1144 64.365 10.6191 64.0422 10.4105C63.8877 10.3146 63.7028 10.2849 63.5274 10.3279C63.3515 10.3709 63.1995 10.4831 63.1036 10.6403C63.0246 10.7579 62.9816 10.8972 62.9801 11.0401C62.9791 11.183 63.0196 11.3231 63.0966 11.4421C63.162 11.5626 63.2605 11.6602 63.3804 11.7226C63.4999 11.785 63.6348 11.8093 63.7678 11.7924C63.8967 11.7812 64.0257 11.7182 63.9257 11.5838C63.8388 11.4673 63.7763 11.3402 63.6968 11.2216C63.6673 11.1786 63.6328 11.1402 63.5684 11.1614C63.5204 11.1786 63.5194 11.2223 63.5159 11.2633C63.5109 11.3263 63.5129 11.3898 63.5029 11.4514C63.4934 11.513 63.4894 11.5891 63.4034 11.5785C63.317 11.568 63.3215 11.4938 63.3195 11.4329C63.318 11.3071 63.321 11.1806 63.321 11.0217ZM63.9007 10.8475C63.8827 10.7317 63.8363 10.6747 63.7368 10.6761C63.6378 10.6773 63.5259 10.6761 63.5184 10.8244C63.5149 10.9005 63.5284 10.9872 63.6253 10.9674C63.7228 10.9475 63.8293 10.923 63.8982 10.8475H63.9007Z" fill="white"/>
<path d="M27.6285 0.302603C27.5731 0.226455 27.5074 0.292007 27.4475 0.289358C27.55 0.137802 27.7065 0.0338453 27.883 0C27.8399 0.131171 27.7486 0.239789 27.6285 0.302603Z" fill="#38A42A"/>
<path d="M27.3392 0.355559C27.3388 0.365305 27.3363 0.374838 27.3319 0.383477C27.3275 0.392115 27.3213 0.399647 27.3137 0.405531C27.3061 0.411415 27.2974 0.415505 27.2882 0.417512C27.2789 0.419519 27.2693 0.419391 27.26 0.417138C27.2703 0.37476 27.2755 0.326424 27.3392 0.355559Z" fill="#38A42A"/>
</g>
<mask id="mask1_10_480" style="mask-type:luminance" maskUnits="userSpaceOnUse" x="71" y="2" width="49" height="13">
<path d="M119.955 2.41406H71.4202V14.5729H119.955V2.41406Z" fill="white"/>
</mask>
<g mask="url(#mask1_10_480)">
<path d="M74.6988 8.56C77.3847 8.56 80.0711 8.56565 82.757 8.55127C83.0629 8.55127 83.1223 8.6468 83.1168 8.93595C83.0994 9.8159 83.0994 10.696 83.1168 11.5763C83.1218 11.8475 83.0524 11.9251 82.783 11.924C80.1396 11.9133 77.4962 11.9179 74.8533 11.9179C74.7998 11.9179 74.7463 11.9215 74.6929 11.923C74.6369 11.8758 74.6359 11.8105 74.6359 11.7443C74.6359 10.7514 74.6359 9.7594 74.6359 8.76852C74.6359 8.69251 74.6299 8.61393 74.6988 8.56Z" fill="#E5A432"/>
<path d="M74.7023 5.88232L74.6948 5.90492L74.7008 8.5602C74.6318 8.61413 74.6378 8.69271 74.6378 8.76872C74.6378 9.76166 74.6378 10.7536 74.6378 11.7445C74.6378 11.8107 74.6378 11.876 74.6948 11.9232C74.6948 12.7147 74.6853 13.5061 74.6948 14.2971C74.6978 14.5148 74.6348 14.5754 74.4249 14.5729C73.5058 14.5616 72.5862 14.5646 71.667 14.5729C71.5006 14.5729 71.4206 14.5482 71.4211 14.3448C71.4281 11.5536 71.4306 8.76184 71.4281 5.96963C71.4306 5.93686 71.4356 5.9044 71.4431 5.87256L74.7023 5.88232Z" fill="#DA812D"/>
<path d="M94.7533 6.5246C94.4279 6.5246 94.1535 6.52049 93.8832 6.5246C93.7617 6.5246 93.7222 6.43061 93.6677 6.35511C93.3944 5.97711 93.1145 5.6027 92.8571 5.21236C92.7281 5.01722 92.5822 4.93761 92.3538 4.95918C92.1299 4.97588 91.905 4.97588 91.6811 4.95918C91.5086 4.94994 91.4617 5.02081 91.4667 5.18925C91.4767 5.54877 91.4567 5.91496 91.4747 6.27653C91.4852 6.48659 91.4177 6.53076 91.2248 6.52871C90.697 6.52357 90.6965 6.53333 90.6965 6.00176C90.6965 4.93556 90.703 3.86985 90.6915 2.80414C90.689 2.57559 90.746 2.50214 90.9739 2.50933C91.8385 2.53707 92.7051 2.46824 93.5683 2.54528C94.255 2.60589 94.5819 2.94281 94.6358 3.58326C94.6898 4.22371 94.3904 4.67979 93.7727 4.85749C93.5793 4.91347 93.6133 4.97048 93.7052 5.09066C93.8827 5.32381 94.0551 5.56264 94.226 5.7994L94.7533 6.5246ZM92.4518 4.27713V4.26788H93.2824C93.3144 4.26814 93.3464 4.26557 93.3779 4.26018C93.7057 4.20163 93.8717 4.01622 93.8602 3.71474C93.8482 3.39734 93.6682 3.23196 93.3764 3.21244C93.0155 3.18779 92.6532 3.18368 92.2913 3.18214C91.4317 3.17803 91.4317 3.18214 91.4697 4.0609C91.4707 4.07184 91.4707 4.08284 91.4697 4.09377C91.4497 4.24015 91.5196 4.28278 91.6526 4.27918C91.919 4.27199 92.1854 4.27713 92.4518 4.27713Z" fill="white"/>
<path d="M118.802 4.93895C119.18 5.45818 119.548 5.96612 119.955 6.52543C119.632 6.52543 119.37 6.51875 119.109 6.52799C118.973 6.53262 118.928 6.43606 118.866 6.34926C118.589 5.95945 118.303 5.57528 118.035 5.17878C117.925 5.01548 117.803 4.94768 117.611 4.96052C117.312 4.98004 116.923 4.86089 116.743 5.01188C116.553 5.17313 116.702 5.58966 116.684 5.8937C116.674 5.98127 116.674 6.06966 116.684 6.15718C116.734 6.46534 116.61 6.54803 116.321 6.53005C115.909 6.50437 115.908 6.52389 115.908 6.08682V2.79315C115.908 2.65294 115.872 2.50965 116.102 2.51427C116.978 2.53224 117.856 2.50554 118.73 2.55125C119.449 2.58874 119.8 2.95596 119.837 3.58203C119.878 4.28823 119.575 4.70321 118.887 4.88554C118.868 4.88759 118.852 4.90557 118.802 4.93895ZM117.653 4.27744V4.25998C117.961 4.25998 118.272 4.28206 118.578 4.25382C118.909 4.22351 119.074 4.02013 119.063 3.71711C119.053 3.39919 118.872 3.23433 118.581 3.2143C118.22 3.18862 117.858 3.18451 117.496 3.18246C116.651 3.17835 116.656 3.18246 116.676 4.05557C116.68 4.22043 116.71 4.29028 116.886 4.2795C117.143 4.26614 117.4 4.27744 117.655 4.27744H117.653Z" fill="white"/>
<path d="M115.835 12.9466C115.391 12.9322 114.962 12.8557 114.566 12.6441C114.276 12.4965 114.041 12.2563 113.895 11.9595C113.833 11.8336 113.842 11.7571 113.995 11.7248C114.109 11.699 114.221 11.6622 114.329 11.6149C114.498 11.5424 114.588 11.5815 114.713 11.7438C115.147 12.3087 115.77 12.2861 116.386 12.2296C116.569 12.2161 116.745 12.1584 116.902 12.0612C117.032 11.9775 117.152 11.8794 117.143 11.7017C117.135 11.5239 117.011 11.4346 116.87 11.3704C116.501 11.203 116.1 11.2009 115.712 11.1382C115.343 11.0787 114.97 11.0443 114.627 10.8758C114.231 10.6822 113.971 10.3956 113.98 9.91126C113.989 9.43875 114.215 9.10748 114.63 8.94827C115.507 8.61392 116.383 8.63754 117.24 9.04174C117.325 9.08725 117.404 9.14426 117.475 9.21123C117.65 9.36274 117.865 9.57075 117.821 9.77054C117.777 9.97032 117.457 9.9277 117.271 10.0196C117.174 10.0669 117.122 10.0361 117.072 9.93745C116.918 9.64265 116.652 9.51168 116.346 9.45673C115.932 9.38174 115.516 9.36531 115.11 9.50038C114.937 9.55791 114.764 9.65446 114.764 9.88044C114.764 10.1198 114.952 10.1886 115.13 10.2256C115.591 10.318 116.054 10.394 116.517 10.4711C116.792 10.5168 117.062 10.5738 117.313 10.7027C117.663 10.8778 117.9 11.1362 117.922 11.5578C117.947 12.0119 117.795 12.3796 117.411 12.6205C116.927 12.9276 116.382 12.9456 115.835 12.9466Z" fill="white"/>
<path d="M97.5318 2.42177C97.8067 2.40195 98.0831 2.42938 98.3495 2.50292C99.3426 2.75972 99.8804 3.53782 99.8394 4.66002C99.8034 5.65075 99.1502 6.40317 98.1726 6.57574C97.6673 6.67209 97.1475 6.65242 96.6502 6.51821C95.7406 6.26142 95.1548 5.45199 95.1913 4.49105C95.2328 3.4125 95.819 2.6796 96.7906 2.4834C97.034 2.42936 97.2834 2.40864 97.5318 2.42177ZM97.5138 5.92604C98.377 5.92604 98.9337 5.52595 99.0372 4.82848C99.2206 3.59174 98.415 3.03398 97.3879 3.10331C96.4823 3.16443 96.013 3.63643 95.9885 4.41606C95.954 5.38933 96.4978 5.92604 97.5138 5.92604Z" fill="white"/>
<path d="M111.712 12.8524C111.198 12.8524 110.684 12.8436 110.171 12.857C109.985 12.8621 109.944 12.799 109.945 12.6177C109.953 11.4292 109.953 10.2409 109.945 9.05279C109.945 8.8643 109.995 8.81705 110.176 8.81859C111.192 8.82732 112.209 8.83348 113.225 8.81602C113.525 8.81088 113.45 9.0004 113.449 9.15859C113.449 9.32808 113.529 9.53505 113.209 9.52632C112.46 9.50578 111.71 9.52632 110.96 9.51451C110.76 9.51143 110.713 9.56587 110.713 9.77131C110.713 10.4195 110.706 10.4195 111.342 10.4195C111.845 10.4195 112.348 10.4313 112.851 10.4154C113.163 10.4051 113.056 10.6285 113.058 10.7749C113.06 10.9212 113.154 11.139 112.846 11.1308C112.215 11.1144 111.583 11.1308 110.952 11.1221C110.781 11.1221 110.716 11.1513 110.713 11.3501C110.703 12.1564 110.695 12.1564 111.478 12.1564C112.078 12.1564 112.678 12.1708 113.278 12.1503C113.601 12.139 113.508 12.3557 113.513 12.5221C113.519 12.6885 113.581 12.8739 113.283 12.8601C112.761 12.8349 112.237 12.8524 111.712 12.8524Z" fill="white"/>
<path d="M103.904 5.29681C103.904 4.48068 103.926 3.65996 103.893 2.8418C103.879 2.48896 104.049 2.52235 104.274 2.51259C104.523 2.5018 104.648 2.52748 104.641 2.85464C104.616 3.97582 104.624 5.09854 104.637 6.22025C104.64 6.45805 104.593 6.52841 104.345 6.5356C104.043 6.54125 103.838 6.44777 103.634 6.21563C102.864 5.33635 102.071 4.47658 101.228 3.54491V4.82274C101.228 5.30657 101.218 5.79089 101.233 6.27469C101.24 6.48013 101.183 6.55563 100.983 6.52687C100.877 6.51557 100.769 6.51557 100.663 6.52687C100.54 6.53611 100.496 6.49143 100.496 6.36046C100.5 5.13965 100.496 3.91881 100.499 2.69748C100.499 2.63482 100.487 2.56754 100.561 2.52748C100.723 2.44017 101.349 2.55727 101.483 2.70673C102.23 3.53772 102.978 4.36889 103.724 5.20025C103.767 5.24339 103.793 5.31427 103.904 5.29681Z" fill="white"/>
<path d="M74.702 2.56067C77.4394 2.55758 80.1768 2.55348 82.9141 2.54834C83.0641 2.54834 83.114 2.58583 83.114 2.74761C83.107 3.72652 83.105 4.70493 83.114 5.68382C83.114 5.88463 83.0401 5.91134 82.8721 5.91134C80.1453 5.9059 77.4184 5.90384 74.692 5.90518L74.6995 5.88258L74.702 2.56067Z" fill="white"/>
<path d="M74.702 5.88258L71.4439 5.87128C71.3264 4.43784 72.501 2.93044 73.9773 2.6192C74.2172 2.56784 74.4586 2.52881 74.705 2.56065L74.702 5.88258Z" fill="white"/>
<path d="M113.486 6.52541C112.973 6.52541 112.459 6.52027 111.946 6.52849C111.799 6.52849 111.743 6.49767 111.746 6.33178C111.753 5.13341 111.753 3.93502 111.746 2.73663C111.746 2.56509 111.792 2.51219 111.961 2.51322C112.988 2.52041 114.014 2.524 115.041 2.51322C115.352 2.51013 115.241 2.72893 115.248 2.87684C115.256 3.02476 115.328 3.21427 115.044 3.20862C114.294 3.19424 113.544 3.21119 112.798 3.19887C112.593 3.19578 112.525 3.24612 112.528 3.46902C112.534 4.12488 112.524 4.12539 113.16 4.12539C113.662 4.12539 114.165 4.13875 114.668 4.12026C115.004 4.10845 114.867 4.34984 114.885 4.50237C114.906 4.67032 114.918 4.81515 114.657 4.8059C114.026 4.78433 113.395 4.8059 112.764 4.79512C112.586 4.79204 112.531 4.84032 112.528 5.03086C112.517 5.84181 112.51 5.84181 113.298 5.84181C113.897 5.84181 114.497 5.85568 115.094 5.83616C115.399 5.82589 115.313 6.0303 115.314 6.18489C115.314 6.33948 115.396 6.54441 115.092 6.5326C114.556 6.51051 114.02 6.52541 113.486 6.52541Z" fill="white"/>
<path d="M90.6881 10.2729C90.6601 10.6632 90.7341 11.1372 90.6461 11.6082C90.5292 12.2286 90.1728 12.6287 89.5911 12.8095C88.9638 13.008 88.2931 13.0101 87.6644 12.8157C86.9337 12.5938 86.5803 12.0787 86.5489 11.167C86.5244 10.4526 86.5489 9.73718 86.5399 9.02225C86.5399 8.85944 86.5938 8.82503 86.7428 8.81938C87.3395 8.7973 87.339 8.79165 87.339 9.40539C87.339 9.97754 87.339 10.5497 87.339 11.1213C87.339 11.789 87.6044 12.112 88.2386 12.2312C88.4815 12.2754 88.7299 12.2768 88.9733 12.2353C89.6161 12.1326 89.9045 11.7905 89.9125 11.1167C89.9209 10.4346 89.9234 9.75258 89.9094 9.07104C89.905 8.8656 89.9594 8.81425 90.1568 8.81784C90.6871 8.82554 90.6871 8.81476 90.6871 9.36841L90.6881 10.2729Z" fill="white"/>
<path d="M86.5433 4.49842C86.5433 3.92679 86.5488 3.35516 86.5398 2.78353C86.5368 2.59812 86.5638 2.50824 86.7787 2.51029C87.8282 2.52159 88.8743 2.52365 89.9218 2.51029C90.2557 2.5067 90.1218 2.74141 90.1403 2.89652C90.1578 3.05933 90.1797 3.21443 89.9139 3.20776C89.1447 3.18927 88.3745 3.20776 87.6048 3.19697C87.4089 3.1944 87.3299 3.22933 87.3324 3.45942C87.3404 4.12247 87.3289 4.12247 87.9822 4.12247C88.4954 4.12247 89.0092 4.13942 89.5215 4.11631C89.8369 4.10244 89.7259 4.32174 89.7309 4.46401C89.7364 4.61809 89.8154 4.81531 89.5115 4.8035C88.9248 4.77987 88.336 4.79631 87.7483 4.79631C87.3379 4.79631 87.3379 4.79631 87.3379 5.23442C87.3379 5.58623 87.3279 5.93856 87.3419 6.28986C87.3494 6.47681 87.2919 6.52816 87.112 6.52971C86.5418 6.53484 86.5423 6.54357 86.5423 5.94883L86.5433 4.49842Z" fill="white"/>
<path d="M93.3889 8.82258C94.0087 8.82258 94.6294 8.83851 95.2487 8.81539C95.523 8.80564 95.5075 8.95509 95.4935 9.13793C95.4796 9.32077 95.5845 9.54881 95.2437 9.5257C94.8388 9.4995 94.431 9.53083 94.0257 9.51491C93.8212 9.50721 93.7538 9.56011 93.7568 9.78301C93.7693 10.7075 93.7523 11.6294 93.7683 12.5523C93.7728 12.8014 93.7093 12.8944 93.4684 12.8548C93.3834 12.842 93.2975 12.842 93.2125 12.8548C93.0291 12.8805 92.9821 12.8035 92.9841 12.6196C92.9931 11.7182 92.9681 10.8164 92.9981 9.91603C93.0096 9.56268 92.8981 9.4918 92.5878 9.51388C92.2154 9.54059 91.8381 9.51131 91.4657 9.52364C91.2848 9.5298 91.2283 9.47228 91.2273 9.28277C91.2248 8.82053 91.2148 8.82053 91.6586 8.82053L93.3889 8.82258Z" fill="white"/>
<path d="M107.316 2.51579C107.936 2.51579 108.557 2.53582 109.176 2.50809C109.508 2.49319 109.426 2.69914 109.439 2.8825C109.456 3.09461 109.439 3.23174 109.163 3.20966C108.791 3.17987 108.414 3.22712 108.041 3.19476C107.73 3.16703 107.682 3.29235 107.687 3.57534C107.704 4.45513 107.687 5.33541 107.699 6.2152C107.702 6.44889 107.662 6.57472 107.407 6.52695C107.344 6.51617 107.279 6.51617 107.216 6.52695C106.984 6.56547 106.908 6.48689 106.916 6.23061C106.933 5.31795 106.916 4.40479 106.928 3.49214C106.931 3.26667 106.881 3.18398 106.649 3.19682C106.232 3.21633 105.814 3.18809 105.399 3.20709C105.114 3.21993 105.186 3.02271 105.196 2.87942C105.206 2.73612 105.076 2.50603 105.396 2.5122C106.032 2.52452 106.674 2.51579 107.316 2.51579Z" fill="white"/>
<path d="M105.52 8.82236C106.151 8.82236 106.782 8.83572 107.412 8.8162C107.686 8.80798 107.641 8.98106 107.625 9.13257C107.608 9.28409 107.75 9.53421 107.414 9.52239C107.019 9.50904 106.621 9.54448 106.229 9.51109C105.929 9.48593 105.885 9.60405 105.89 9.87677C105.906 10.7663 105.89 11.6569 105.901 12.5475C105.905 12.7863 105.857 12.8998 105.608 12.8556C105.534 12.8438 105.458 12.8438 105.384 12.8556C105.184 12.8844 105.113 12.8166 105.116 12.5932C105.13 11.6687 105.112 10.7468 105.128 9.82387C105.132 9.57221 105.062 9.50339 104.824 9.51572C104.43 9.53626 104.033 9.51161 103.638 9.52599C103.445 9.53266 103.38 9.48079 103.383 9.27176C103.39 8.82493 103.377 8.82442 103.821 8.82442L105.52 8.82236Z" fill="white"/>
<path d="M97.8145 10.8052C97.8145 10.2335 97.8245 9.66138 97.8095 9.09027C97.8035 8.87558 97.8595 8.81447 98.0709 8.81909C98.5847 8.83039 98.5847 8.81909 98.5847 9.35271C98.5847 10.1883 98.5942 11.0245 98.5787 11.8596C98.5747 12.0963 98.6432 12.1472 98.8626 12.1426C99.6212 12.1282 100.381 12.1533 101.14 12.1297C101.471 12.1189 101.396 12.3259 101.399 12.5098C101.402 12.6937 101.458 12.8693 101.149 12.8606C100.112 12.839 99.0745 12.8477 98.0374 12.857C97.8535 12.857 97.8065 12.8056 97.81 12.6192C97.8215 12.0136 97.8145 11.4086 97.8145 10.8052Z" fill="white"/>
<path d="M101.997 10.8255C101.997 10.2426 102.006 9.65963 101.992 9.07927C101.988 8.87897 102.035 8.81733 102.238 8.81888C102.793 8.82247 102.793 8.81169 102.793 9.38383C102.793 10.4398 102.786 11.4952 102.799 12.5512C102.802 12.791 102.753 12.9066 102.503 12.8562C102.461 12.8482 102.418 12.8482 102.375 12.8562C102.075 12.9117 101.97 12.8085 101.989 12.4777C102.02 11.9266 101.997 11.3756 101.997 10.8255Z" fill="white"/>
<path d="M110.797 4.51516C110.797 5.09809 110.791 5.681 110.8 6.26393C110.803 6.44677 110.784 6.53511 110.566 6.53203C110.023 6.52587 110.023 6.53973 110.023 5.98402C110.023 4.92808 110.032 3.87162 110.017 2.81618C110.013 2.55939 110.09 2.47772 110.323 2.5147C110.376 2.52292 110.43 2.52292 110.483 2.5147C110.729 2.47515 110.814 2.56606 110.804 2.83261C110.782 3.39243 110.797 3.95431 110.797 4.51516Z" fill="white"/>
<path d="M96.851 10.852C96.851 11.435 96.8425 12.0179 96.856 12.6008C96.8605 12.7996 96.817 12.8612 96.6126 12.8576C96.0808 12.8489 96.0808 12.8607 96.0808 12.3091C96.0808 11.2526 96.0888 10.1967 96.0748 9.14072C96.0718 8.88958 96.1248 8.80432 96.3837 8.81716C96.8505 8.84027 96.851 8.82281 96.851 9.30097V10.852Z" fill="white"/>
<path d="M108.226 10.8385C108.226 10.2555 108.235 9.67259 108.221 9.09223C108.215 8.87549 108.275 8.8154 108.486 8.819C108.999 8.82824 108.999 8.819 108.999 9.35468C108.999 10.4214 108.991 11.4876 109.005 12.5539C109.008 12.7963 108.955 12.9005 108.711 12.8569C108.626 12.844 108.54 12.844 108.455 12.8569C108.275 12.8805 108.218 12.8112 108.221 12.6217C108.233 12.0259 108.226 11.4322 108.226 10.8385Z" fill="white"/>
</g>
<path d="M68.4216 0.770341C68.4216 0.515055 68.2202 0.308105 67.9718 0.308105C67.7234 0.308105 67.522 0.515055 67.522 0.770341V16.2296C67.522 16.4848 67.7234 16.6918 67.9718 16.6918C68.2202 16.6918 68.4216 16.4848 68.4216 16.2296V0.770341Z" fill="white"/>
</g>
<defs>
<clipPath id="clip0_10_480">
<rect width="120" height="17" fill="white"/>
</clipPath>
</defs>
</svg>
