<svg width="250" height="79" viewBox="0 0 250 79" fill="none" xmlns="http://www.w3.org/2000/svg">
<path d="M34.0635 0.90699C32.7371 1.04806 31.3304 1.26974 30.9485 1.39066C30.5667 1.51158 29.9839 1.61234 29.6624 1.61234C28.6977 1.61234 24.9598 2.86184 22.3071 4.07102C18.3481 5.8848 14.8111 8.38377 11.4751 11.7292C9.76687 13.422 6.43086 17.4728 6.43086 17.8356C6.43086 17.8759 6.12941 18.3998 5.76767 18.9843C5.0442 20.1532 3.21542 23.8613 3.21542 24.1838C3.21542 24.2845 3.05465 24.7682 2.83359 25.2317C2.29099 26.5215 1.6479 28.5973 1.50722 29.6251C1.42684 30.1289 1.24597 30.935 1.1053 31.4389C0.783752 32.4465 0.34163 35.3889 0.321533 36.4771C0.321533 38.1297 1.22587 44.3771 1.84886 46.9567C2.35128 49.0527 2.47185 49.5162 2.75321 50.3828C2.91398 50.8866 3.15513 51.733 3.29581 52.2973C3.43649 52.8414 3.71784 53.5669 3.8987 53.9095C4.07957 54.232 4.22025 54.635 4.22025 54.7761C4.22025 54.897 4.40112 55.3606 4.62218 55.7636C4.84324 56.1868 5.02411 56.6705 5.02411 56.8519C5.02411 57.0333 5.16478 57.2953 5.32555 57.4363C5.48632 57.5774 5.627 57.7991 5.627 57.92C5.627 58.1215 6.04903 58.968 7.15433 60.9833C7.93809 62.3738 10.7516 65.7394 12.8818 67.8353C19.0313 73.8208 26.2058 77.146 35.6712 78.4157C38.2637 78.7583 41.2982 78.5366 45.1166 77.7103C49.7789 76.7026 51.4469 76.1787 54.5016 74.6672C56.5313 73.6595 56.6921 73.5789 59.0233 71.9667C65.0723 67.7748 72.0056 59.8345 74.8794 53.8088C75.3818 52.7608 75.8641 51.7532 75.9445 51.5919C76.0249 51.4307 76.3264 50.5238 76.6278 49.5766C78.135 44.7399 78.5973 40.3868 78.1953 35.2276C78.0547 33.434 77.7733 31.3784 77.5723 30.6529C77.3714 29.9274 77.1503 28.9802 77.09 28.5771C77.0096 28.1741 76.8288 27.5695 76.668 27.2672C76.5072 26.9649 76.3666 26.6021 76.3666 26.4611C76.3666 25.9975 74.9397 22.6723 74.0153 20.9593C70.1367 13.8049 63.0828 7.2552 56.5514 4.73607C55.7878 4.45393 54.7629 4.05087 54.2604 3.84933C50.5828 2.37816 43.2275 0.90699 38.5852 0.725609C37.4196 0.665154 35.3899 0.765915 34.0635 0.90699ZM45.8199 2.92229C46.3223 3.06337 47.086 3.24474 47.5281 3.32536C49.3368 3.62766 54.9236 6.08633 56.4309 7.2552C56.7323 7.47688 57.918 8.36362 59.0836 9.21005C62.6407 11.8098 67.3231 16.8682 67.3231 18.0975C67.3231 18.2789 65.9365 17.0496 64.2685 15.3567C60.5707 11.6486 58.6616 10.2379 54.5619 8.2024C52.492 7.17459 51.9092 6.93275 50.2411 6.36847C45.9807 4.95776 43.3079 4.53454 38.5852 4.53454C33.963 4.53454 32.1543 4.81668 27.0699 6.36847C25.1608 6.9529 24.7588 6.99321 25.1407 6.52969C26.246 5.19959 33.2395 3.04321 37.7813 2.64015C40.1125 2.41846 44.7146 2.57969 45.8199 2.92229ZM30.2452 2.80138C30.1849 2.90215 29.8834 3.04321 29.5619 3.12383C29.2403 3.18429 28.8585 3.38582 28.7178 3.54704C28.5973 3.70827 28.4164 3.82919 28.3159 3.82919C28.1149 3.82919 25.9043 4.83684 24.4172 5.5825C22.8095 6.40878 19.3328 8.80699 17.5241 10.3185C14.0876 13.2205 9.16398 18.9238 6.67202 22.8738C5.82796 24.2442 4.01928 27.9322 4.01928 28.3152C4.01928 28.4965 3.85851 28.96 3.63745 29.3833C3.43649 29.7863 3.21542 30.4715 3.13504 30.8746C3.05465 31.2777 2.81349 31.8218 2.59243 32.0838L2.1905 32.5473L2.31108 31.2373C2.57234 28.557 4.76285 22.8134 6.69211 19.8106C6.99356 19.3269 7.23472 18.8835 7.23472 18.7828C7.23472 18.682 7.61655 18.0975 8.09887 17.4728C8.56108 16.8481 9.22427 15.9815 9.54581 15.518C11.2339 13.1802 16.258 8.82714 19.594 6.81184C22.1463 5.2802 26.668 3.24474 27.5924 3.20444C27.8336 3.20444 28.3561 3.06337 28.7379 2.92229C29.5619 2.59985 30.426 2.53938 30.2452 2.80138ZM44.9156 6.2677C46.7444 6.65061 49.8995 7.57765 51.9493 8.32332C53.0547 8.74653 57.4759 11.044 57.9783 11.4672C58.1993 11.6486 58.7821 12.0718 59.2846 12.3942C60.2894 13.019 63.5852 15.8203 64.2082 16.5458C68.4485 21.584 69.0916 22.4909 70.6592 25.7154C71.9252 28.3152 72.7492 30.6731 72.9502 32.245C73.6133 37.2228 73.6334 37.7468 73.2717 41.2333C73.0707 43.1075 72.7693 44.9616 72.6085 45.3445C72.4477 45.7274 72.2468 46.4529 72.1262 46.9567C71.7645 48.6496 69.6543 53.6274 68.5088 55.5218C66.9212 58.1417 66.4389 58.8269 64.7106 60.8825C61.8167 64.2884 58.3802 67.0493 54.3609 69.1453C51.5273 70.6164 47.5482 72.2287 46.1214 72.4705C45.6793 72.531 44.8151 72.7325 44.2122 72.934C43.328 73.196 42.1825 73.2565 38.2838 73.2565C33.8223 73.2565 33.34 73.2162 31.8529 72.793C28.8585 71.9062 26.467 70.9389 24.0756 69.6088C21.9252 68.4197 18.1471 65.5379 16.0772 63.4822C14.4895 61.9103 11.9172 58.6657 10.9526 57.0131C9.74677 54.897 9.36494 54.1715 8.82234 52.9019C8.4807 52.1159 8.03858 51.1284 7.83761 50.6649C7.61655 50.2014 7.43568 49.7177 7.43568 49.5565C7.43568 49.3953 7.25481 48.7302 7.05385 48.0652C5.88825 44.4578 5.40594 39.5203 5.80787 34.9657C6.04903 32.0636 6.85288 28.4764 7.85771 25.8968C8.05867 25.3325 8.23954 24.8085 8.23954 24.7279C8.23954 24.4458 9.46542 21.9468 10.4903 20.1733C14.2886 13.5027 21.2219 8.8876 30.9485 6.52969C34.6865 5.6228 41.0973 5.50188 44.9156 6.2677ZM60.0482 7.67841C61.1937 8.32332 63.3641 10.0363 65.7757 12.1524C67.2428 13.4623 70.5587 17.493 71.8047 19.5486C72.6889 20.9593 74.5579 24.6674 74.5579 24.9697C74.5579 25.0907 74.7186 25.5743 74.9397 26.0379C76.4871 29.5646 77.2709 34.5828 77.0699 39.7016C76.9092 44.1152 76.2058 48.045 75.0603 50.7858C74.8191 51.3904 74.5579 52.0555 74.4976 52.2368C74.3167 52.7608 73.955 52.6802 73.955 52.1361C73.955 51.8942 74.1358 51.0277 74.3569 50.2014C74.578 49.3751 74.7588 48.4682 74.7588 48.1861C74.7588 47.9039 74.8995 47.2187 75.0603 46.6947C75.5024 45.2034 75.4622 39.2986 74.9598 35.7718C74.4373 32.1845 73.7741 29.6251 72.1262 24.8287C71.7243 23.6598 69.4132 18.8634 68.6897 17.7348C67.0619 15.1149 64.6101 12.4547 61.1535 9.5325C58.2998 7.09398 57.9381 6.46923 60.0482 7.67841ZM5.78777 28.3555C5.68729 29.0004 5.52652 29.7863 5.40594 30.1289C4.98391 31.3784 4.42121 36.0338 4.42121 38.3917C4.42121 41.0922 4.86333 45.1228 5.30546 46.6544C6.45095 50.5037 6.83279 51.5718 7.95819 53.9095C10.5305 59.2501 13.0426 62.4141 17.9662 66.5455C19.0715 67.4725 20.0161 68.3391 20.0563 68.46C20.3979 69.5886 16.258 66.6664 13.0024 63.5024C9.88745 60.4996 6.99356 56.731 5.68729 54.0103C3.95899 50.3626 3.61735 49.3549 2.91398 45.5863C2.35128 42.4626 2.67282 36.4973 3.61735 32.9504C3.83841 32.1644 4.05948 31.2575 4.11976 30.935C4.42121 29.4437 5.50642 27.2067 5.92845 27.2067C5.94854 27.2067 5.88825 27.7307 5.78777 28.3555ZM73.7741 48.1055C73.754 49.1333 72.2066 54.1514 71.5836 55.3404C71.463 55.5419 71.041 56.4085 70.6391 57.2348C67.5643 63.4822 64.0072 66.9486 57.0539 70.4552C53.5772 72.2085 49.2363 73.6192 49.2363 72.9945C49.2363 72.9139 50.7034 72.1682 52.492 71.3419C57.3754 69.0646 59.9276 67.3113 63.4847 63.7241C66.1977 61.0034 68.3883 58.2828 69.2323 56.5899C69.4333 56.2271 69.6945 55.7838 69.8151 55.6225C70.1367 55.2195 71.9252 51.1486 72.7492 48.972C73.1109 48.0248 73.4325 47.1784 73.4928 47.0978C73.6937 46.7552 73.8143 47.1784 73.7741 48.1055ZM12.1784 64.0667C15.9164 67.6942 17.7653 69.0243 21.7444 70.959C22.7492 71.4629 26.3264 72.7123 28.8987 73.458C29.8633 73.7401 32.717 74.3044 35.6712 74.8083C37.5201 75.1106 47.7492 74.8687 48.754 74.4858C49.176 74.3246 49.8995 74.1432 50.3416 74.0626C50.7838 73.982 52.09 73.6192 53.2556 73.2363C54.4212 72.8534 55.426 72.5511 55.5265 72.5511C56.3907 72.5511 53.3963 74.1835 50.9445 75.0501C48.8344 75.7958 46.4429 76.3197 43.2476 76.7833C38.967 77.3879 36.2942 77.3072 31.3505 76.4004C26.668 75.5338 21.5635 73.2363 16.9614 69.8909C14.8714 68.3996 9.90755 63.3009 9.18407 61.9103C8.86253 61.346 8.68166 60.8623 8.74195 60.8623C8.80224 60.8623 10.3497 62.3134 12.1784 64.0667Z" fill="black"/>
<path d="M136.033 29.6251C133.863 30.008 131.752 31.5799 131.27 33.172C130.928 34.3812 130.969 36.0337 131.411 37.0011C132.074 38.4723 134.566 40.0039 136.957 40.4069C138.404 40.6488 140.555 41.3743 141.318 41.858C141.981 42.3013 142.182 42.6238 142.564 43.8128C142.765 44.4376 142.323 45.6266 141.64 46.2916C140.374 47.521 138.223 47.8837 135.792 47.2388C134.666 46.9567 132.657 45.8483 132.355 45.3646C131.953 44.7197 130.426 45.4452 130.426 46.2715C130.426 46.6544 130.707 46.9365 131.793 47.6419C133.581 48.7906 135.37 49.3751 137.48 49.5161C140.535 49.7177 142.846 48.71 144.192 46.5939C144.735 45.7274 144.795 45.4855 144.775 44.0345C144.775 42.5633 144.715 42.3416 144.152 41.5154C143.127 40.024 141.76 39.2582 138.967 38.5932C135.731 37.8274 134.847 37.4444 133.762 36.2957C133.24 35.7516 133.199 35.5904 133.28 34.5626C133.36 33.6355 133.481 33.3131 134.023 32.7689C134.707 32.0636 136.314 31.4388 137.48 31.4388C138.565 31.4388 140.796 32.1643 141.801 32.8294C142.745 33.4944 143.047 33.4743 143.77 32.7286C144.313 32.2047 144.152 31.6807 143.248 31.1164C141.379 29.9274 138.123 29.2623 136.033 29.6251Z" fill="black"/>
<path d="M217.142 29.6653C214.771 30.1087 212.259 31.862 210.912 33.9579C209.305 36.4972 208.843 40.0038 209.787 42.7648C211.234 47.0574 214.711 49.5765 219.152 49.5765C221.825 49.5765 223.895 48.8309 226.005 47.0977C226.829 46.4125 226.869 45.9288 226.166 45.3645C225.482 44.8204 225.261 44.8406 224.618 45.425C222.548 47.3395 219.695 48.0248 217.042 47.2388C214.972 46.6342 213.404 45.2033 212.379 43.0268C211.756 41.7168 211.716 41.475 211.716 39.5C211.716 37.6258 211.797 37.2429 212.259 36.2352C212.942 34.764 213.887 33.575 214.972 32.8293C215.997 32.124 218.047 31.4388 219.172 31.4388C220.78 31.4388 223.674 32.5875 224.457 33.5347C224.859 33.9982 225.623 33.9378 226.186 33.3533C226.829 32.7286 226.809 32.5875 226.045 31.862C224.056 29.9878 220.277 29.0607 217.142 29.6653Z" fill="black"/>
<path d="M92.8456 29.8669C92.6245 29.9475 92.4437 30.1289 92.4437 30.27C92.4236 30.411 92.4236 34.6633 92.4236 39.7016C92.4236 48.1659 92.4437 48.8914 92.7652 49.1131C93.2073 49.4355 93.75 49.4557 94.2725 49.1735C94.6342 48.972 94.6543 48.71 94.6543 45.5863C94.6543 43.2284 94.7347 42.12 94.8954 41.9587C95.0562 41.7975 95.9405 41.7169 97.5884 41.7169H100.04L100.924 42.7649C101.407 43.3493 102.653 44.9817 103.698 46.3924C105.687 49.0728 106.27 49.5161 107.516 49.3348C108.24 49.2541 108.32 48.4077 107.677 47.8636C107.416 47.6419 106.612 46.6947 105.908 45.7475C104.22 43.4904 103.457 42.5029 103.135 42.1603C102.733 41.7169 102.934 41.2332 103.597 41.0922C104.28 40.9511 105.567 40.2457 106.29 39.621C106.551 39.3791 107.034 38.6536 107.335 37.9886C108.461 35.6508 107.958 33.1922 106.029 31.4993C104.622 30.2498 103.678 29.9878 100.382 29.9072C94.0514 29.7258 93.2274 29.7258 92.8456 29.8669ZM102.452 32.0233C103.336 32.2047 104.481 32.9906 105.145 33.8774C105.426 34.2401 105.526 34.7439 105.526 35.6508C105.547 37.1422 105.004 38.1095 103.637 39.0164C102.793 39.5807 102.753 39.5807 99.0152 39.6613C96.2419 39.7217 95.1768 39.6814 94.9557 39.5001C94.7146 39.2985 94.6543 38.5932 94.6543 35.7919C94.6543 33.3735 94.7347 32.245 94.8954 32.0837C95.1768 31.8016 101.065 31.7613 102.452 32.0233Z" fill="black"/>
<path d="M112.6 29.9274C112.359 30.1087 112.319 31.6807 112.319 39.4799C112.319 46.3319 112.379 48.8914 112.56 49.0929C112.761 49.3348 113.927 49.3751 119.413 49.3751L126.005 49.3549L126.346 48.8309C126.648 48.3674 126.648 48.2666 126.387 47.783L126.085 47.259L120.74 47.2187C117.785 47.1985 115.193 47.1381 114.952 47.0575C114.49 46.9164 114.51 47.0978 114.55 43.5307C114.57 41.3743 114.63 40.7697 114.871 40.5883C115.072 40.4271 116.64 40.3465 119.956 40.3666C122.568 40.3666 124.839 40.3062 124.96 40.2256C125.362 39.9837 125.241 38.9358 124.819 38.6939C124.578 38.573 122.568 38.4924 119.715 38.4924C116.198 38.4924 114.952 38.4319 114.791 38.2304C114.469 37.8475 114.409 32.5473 114.731 32.1643C114.972 31.8822 115.715 31.8419 120.498 31.8419C125.723 31.8419 126.005 31.8217 126.206 31.459C126.487 30.9149 126.467 30.3304 126.125 30.0483C125.764 29.746 113.002 29.6251 112.6 29.9274Z" fill="black"/>
<path d="M155.225 29.7661C150.161 29.8266 148.915 29.887 148.734 30.1087C148.412 30.4916 148.412 48.7503 148.714 49.0526C148.855 49.1937 151.166 49.2944 155.567 49.3146C161.917 49.3549 162.199 49.3549 162.58 48.972C163.083 48.4682 163.083 48.0651 162.601 47.5814C162.219 47.1985 161.877 47.1784 156.752 47.1784C152.793 47.1985 151.226 47.1179 151.005 46.9567C150.583 46.5939 150.583 41.072 151.025 40.6488C151.266 40.4069 152.17 40.3465 156.17 40.3263C161.254 40.3263 161.576 40.2659 161.576 39.4194C161.576 38.5327 161.355 38.4924 156.109 38.4924C151.407 38.4924 151.125 38.4722 150.924 38.1095C150.623 37.5452 150.663 32.386 150.965 32.0837C151.146 31.9023 152.693 31.8419 156.692 31.8419H162.179L162.48 31.3582C162.701 31.0156 162.741 30.7536 162.601 30.3909C162.42 29.9273 161.917 29.5646 161.616 29.6653C161.535 29.7057 158.662 29.746 155.225 29.7661Z" fill="black"/>
<path d="M175.402 29.9677C175.121 30.2901 173.432 33.7161 173.432 33.958C173.432 34.0184 173.03 34.885 172.548 35.9128C171.403 38.3715 170.8 39.6814 168.81 44.0748C167.906 46.0901 167.042 47.8434 166.881 47.9845C166.278 48.4883 166.7 49.3751 167.564 49.3751C168.448 49.3751 168.85 48.9317 169.755 46.997C171.182 43.8934 170.619 44.1353 176.447 44.1353H181.411L181.953 44.9414C182.235 45.3848 182.476 45.8483 182.476 45.9893C182.476 46.1304 182.657 46.5536 182.878 46.9164C183.099 47.2791 183.28 47.7024 183.28 47.8837C183.28 48.0651 183.541 48.4682 183.883 48.7906C184.345 49.2541 184.626 49.3952 185.108 49.3348C186.254 49.234 186.294 48.7906 185.35 47.0575C185.209 46.8358 184.928 46.1909 184.686 45.6467C184.445 45.0825 184.003 44.1353 183.722 43.5307C183.461 42.9261 183.039 42.0192 182.817 41.5154C182.596 41.0115 182.235 40.286 182.034 39.883C181.833 39.4799 181.672 39.0164 181.672 38.835C181.672 38.6738 181.551 38.4319 181.391 38.311C181.23 38.17 181.029 37.7669 180.948 37.4243C180.888 37.0615 180.647 36.5376 180.446 36.2353C180.225 35.9531 180.064 35.6105 180.064 35.4694C180.064 35.3485 179.863 34.8649 179.642 34.4013C178.617 32.4062 178.457 32.0434 178.457 31.8016C178.457 31.6605 178.175 31.1164 177.854 30.5723C177.311 29.7057 177.19 29.6251 176.487 29.6251C175.985 29.6251 175.583 29.7661 175.402 29.9677ZM177.231 33.9983C177.472 34.6432 177.834 35.5299 178.034 35.9733C178.235 36.4166 178.577 37.1825 178.818 37.6863C179.039 38.1901 179.401 39.0164 179.642 39.5202C179.883 40.024 180.064 40.5279 180.064 40.6085C180.064 40.7092 180.205 40.9309 180.386 41.1325C180.567 41.334 180.667 41.6363 180.607 41.8177C180.486 42.0797 179.883 42.12 176.487 42.12C173.513 42.12 172.428 42.0595 172.287 41.858C172.086 41.6363 172.789 39.9636 174.638 36.1748C174.859 35.7314 175.04 35.3082 175.04 35.2478C175.04 35.1672 175.281 34.6029 175.563 33.9781C176.246 32.4868 176.628 32.4868 177.231 33.9983Z" fill="black"/>
<path d="M190.273 30.0684C189.932 30.411 189.912 31.1365 189.912 39.4598C189.912 47.2993 189.952 48.5286 190.233 48.9317C190.595 49.4557 191.238 49.496 191.901 49.0526C192.343 48.7302 192.363 48.6697 192.303 45.546C192.243 43.1075 192.303 42.3013 192.504 42.0393C192.725 41.7774 193.187 41.7169 194.916 41.7169C196.081 41.7169 197.247 41.7774 197.508 41.8378C197.81 41.9386 198.895 43.2082 200.583 45.4855C203.316 49.1534 203.658 49.4355 204.964 49.3347C205.908 49.2541 206.009 48.7302 205.245 47.8837C204.924 47.5411 204.401 46.8962 204.06 46.4529C201.306 42.8656 200.563 41.7774 200.603 41.5154C200.643 41.3541 200.884 41.1728 201.166 41.1123C201.849 40.9712 203.175 40.2256 203.798 39.6411C206.471 37.1018 205.868 32.5271 202.633 30.7939C201.166 30.008 199.859 29.8266 195.036 29.7661C191.057 29.7258 190.575 29.7661 190.273 30.0684ZM201.226 32.5069C202.311 33.1518 203.175 34.361 203.316 35.4896C203.477 36.5779 202.512 38.1901 201.226 38.9962L200.261 39.6008L196.543 39.6613C194.494 39.7016 192.705 39.6411 192.544 39.5404C192.142 39.2582 192.142 32.2853 192.544 32.0233C192.705 31.9024 194.413 31.8419 196.543 31.8822C200.201 31.9427 200.281 31.9427 201.226 32.5069Z" fill="black"/>
<path d="M230.969 29.9273L230.526 30.2498V39.5L230.506 48.7503L230.948 49.0727C231.551 49.4758 232.174 49.4556 232.576 49.0123C232.878 48.6898 232.918 48.0852 232.918 44.6794C232.918 42.1602 232.998 40.6891 233.119 40.6085C233.481 40.3868 243.609 40.4674 243.83 40.6891C243.971 40.8301 244.031 42.3618 243.991 44.8204C243.951 48.6898 243.951 48.7301 244.413 49.0526C244.996 49.4556 245.86 49.4758 246.262 49.0526C246.543 48.7704 246.584 47.6419 246.584 39.5V30.2296L246.101 29.9273C245.78 29.7056 245.438 29.6452 245.056 29.746C243.951 30.0079 243.951 29.9878 244.011 34.0587C244.051 37.0212 244.011 37.8878 243.79 38.1498C243.549 38.4521 242.906 38.4924 238.344 38.4924C233.802 38.4924 233.139 38.4521 233.039 38.1699C232.978 37.9886 232.918 36.1345 232.918 34.0587C232.918 30.3505 232.898 30.2498 232.476 29.9475C231.913 29.5444 231.511 29.5444 230.969 29.9273Z" fill="black"/>
<circle cx="39.5" cy="39.5" r="28.5" fill="#FE5815"/>
<path d="M30.925 48H26.55L21.5 41.325L20.2 42.875V48H16.65V31.325H20.2V38.775L26.1 31.325H30.475L23.85 39.15L30.925 48ZM30.7426 39.675C30.7426 34.4 34.7426 31.05 39.6176 31.05C43.0676 31.05 45.2426 32.725 46.5176 34.7L43.5676 36.3C42.7926 35.125 41.3676 34.2 39.6176 34.2C36.5926 34.2 34.3926 36.525 34.3926 39.675C34.3926 42.825 36.5926 45.15 39.6176 45.15C41.1426 45.15 42.4926 44.525 43.2176 43.875V41.85H38.7676V38.8H46.7176V45.175C45.0176 47.075 42.6426 48.325 39.6176 48.325C34.7426 48.325 30.7426 44.925 30.7426 39.675ZM48.3857 45.65L50.3357 42.95C51.5107 44.175 53.3357 45.2 55.6357 45.2C57.5857 45.2 58.5357 44.275 58.5357 43.325C58.5357 42.075 57.0857 41.65 55.1607 41.2C52.4357 40.575 48.9357 39.825 48.9357 36.1C48.9357 33.325 51.3357 31.075 55.2607 31.075C57.9107 31.075 60.1107 31.875 61.7607 33.4L59.7857 36C58.4357 34.75 56.6357 34.175 55.0107 34.175C53.4107 34.175 52.5607 34.875 52.5607 35.875C52.5607 37 53.9607 37.35 55.8857 37.8C58.6357 38.425 62.1357 39.25 62.1357 42.95C62.1357 46 59.9607 48.3 55.4607 48.3C52.2607 48.3 49.9607 47.225 48.3857 45.65Z" fill="white"/>
<line x1="85.5" y1="9" x2="85.5" y2="70" stroke="black"/>
</svg>
