<svg width="120" height="24" viewBox="0 0 120 24" fill="none" xmlns="http://www.w3.org/2000/svg">
<g clip-path="url(#clip0_10_530)">
<path d="M21.9788 11.2742C21.9788 5.05955 17.6184 0.287598 10.9894 0.287598C4.36042 0.287598 0 5.05955 0 11.2742C0 17.4333 4.21311 22.3163 10.9894 22.3163C17.7658 22.3163 21.9788 17.4333 21.9788 11.2742ZM17.5006 11.1077C17.5006 14.326 15.7918 18.2934 10.9894 18.2934C6.18708 18.2934 4.47828 14.326 4.47828 11.1077C4.47828 7.72296 6.89418 4.31047 10.9894 4.31047C15.0847 4.31047 17.5006 7.72296 17.5006 11.1077Z" fill="white"/>
<path d="M119.911 11.2742C119.911 5.05955 115.551 0.287598 108.922 0.287598C102.293 0.287598 97.9324 5.05955 97.9324 11.2742C97.9324 17.4333 102.145 22.3163 108.922 22.3163C115.698 22.3163 119.911 17.4333 119.911 11.2742ZM115.433 11.1077C115.433 14.326 113.724 18.2934 108.922 18.2934C104.119 18.2934 102.411 14.326 102.411 11.1077C102.411 7.72296 104.827 4.31047 108.922 4.31047C113.017 4.31047 115.433 7.72296 115.433 11.1077Z" fill="white"/>
<path d="M30.175 13.8607H32.3618C36.975 13.8607 39.5812 11.6809 39.5812 7.20965C39.5812 2.43097 36.4957 0.67041 31.7627 0.67041H25.7715V21.7413H30.175V13.8607ZM30.175 4.07976H30.9539C33.4103 4.07976 35.0878 4.471 35.0878 7.18171C35.0878 9.92036 33.6798 10.4513 31.0737 10.4513H30.175V4.07976Z" fill="white"/>
<path d="M53.7114 2.37335C52.3916 0.932386 49.7235 0 47.8014 0C44.1578 0 41.4897 2.85367 41.4897 6.38543C41.4897 9.69118 43.5266 11.0756 46.3095 12.2058C48.0022 12.8557 50.0678 13.4772 50.0678 15.6811C50.0678 17.3198 49.0063 18.7607 47.285 18.7607C45.4776 18.7607 43.957 17.2915 43.3832 15.6528L40.6577 18.2805C42.1496 20.7385 44.33 22.4337 47.3136 22.4337C51.7318 22.4337 54.4286 19.4107 54.4286 15.1442C54.4286 7.99592 45.8505 9.4934 45.8505 5.90511C45.8505 4.52067 47.1415 3.50351 48.4899 3.50351C49.8958 3.50351 50.9285 4.18162 51.7318 5.25527L53.7114 2.37335Z" fill="white"/>
<path d="M64.5746 18.635L67.7592 14.9903C69.7387 12.7298 71.5174 10.3848 71.5174 7.24858C71.5174 3.3495 68.4476 0.382812 64.4886 0.382812C60.063 0.382812 57.6833 3.51713 57.3778 7.58551L55.8152 7.58079L59.5299 11.1692L63.2682 7.60331L61.847 7.59902C61.7792 5.99592 62.6414 3.99935 64.5172 3.99935C66.296 3.99935 67.3001 5.92062 67.3001 7.44635C67.3001 9.6832 64.5375 13.0475 62.9299 15.0053L62.9295 15.0058C62.8112 15.1498 62.6993 15.2862 62.595 15.4141L57.0867 22.2516H70.8867V23.9905L74.3766 20.4347L70.8867 16.8781V18.635H64.5746Z" fill="url(#paint0_linear_10_530)"/>
<path d="M85.7968 10.6345V14.025H90.387C90.301 16.5961 88.0919 18.8564 85.4525 18.8564C81.3786 18.8564 79.3417 14.9291 79.3417 11.3973C79.3417 7.86559 81.35 3.76874 85.4238 3.76874C87.6616 3.76874 89.4977 5.23797 90.3584 7.15924L94.088 5.18145C92.424 1.93222 89.2108 0.0957031 85.5386 0.0957031C79.0835 0.0957031 74.981 5.32272 74.981 11.3973C74.981 17.2743 78.9688 22.5295 85.2804 22.5295C91.9937 22.5295 95.1209 17.1895 95.1209 11.1713V10.6345H85.7968Z" fill="white"/>
</g>
<defs>
<linearGradient id="paint0_linear_10_530" x1="68.3157" y1="7.56391" x2="62.5449" y2="8.44286" gradientUnits="userSpaceOnUse">
<stop stop-color="#3A8BDA"/>
<stop offset="1" stop-color="white"/>
</linearGradient>
<clipPath id="clip0_10_530">
<rect width="120" height="24" fill="white"/>
</clipPath>
</defs>
</svg>
