<svg width="120" height="27" viewBox="0 0 120 27" fill="none" xmlns="http://www.w3.org/2000/svg">
<g clip-path="url(#clip0_10_376)">
<path d="M12.1442 0.0976076C12.0242 0.183128 12.0482 0.732902 12.2282 2.82204C12.6242 7.25688 12.6122 7.12249 12.8042 6.92702C12.9482 6.78041 12.9482 6.30394 12.8402 3.77498C12.6722 -0.146736 12.6482 -0.22004 12.1442 0.0976076Z" fill="white"/>
<path d="M13.7761 0.0246311C13.7761 0.0490655 13.7041 1.53956 13.6201 3.35992C13.5001 6.04771 13.5121 6.69522 13.6321 6.82961C13.8601 7.08617 13.8721 7.06173 14.1601 3.43323C14.3761 0.76988 14.3881 0.195672 14.2561 0.110151C14.1121 0.0124139 13.8241 -0.0364549 13.7761 0.0246311Z" fill="white"/>
<path d="M10.4281 0.342087C10.2721 0.41539 10.3561 0.904078 11.0641 4.01946C11.5081 5.99865 11.9041 7.63575 11.9401 7.6724C12.1441 7.89231 12.1441 7.37919 11.9161 6.07195C11.1841 1.83258 10.8601 0.24435 10.7521 0.256567C10.6801 0.256567 10.5361 0.293218 10.4281 0.342087Z" fill="white"/>
<path d="M15.4441 0.635256C15.4081 0.79408 15.1201 2.39453 14.8081 4.19046C14.3881 6.62168 14.2801 7.50132 14.3761 7.59906C14.4601 7.68458 14.5321 7.72123 14.5561 7.68458C14.6041 7.63571 16.1881 0.561953 16.1521 0.525302C16.1521 0.513084 15.9961 0.476433 15.8281 0.427564C15.5641 0.366478 15.5041 0.390912 15.4441 0.635256Z" fill="white"/>
<path d="M8.73613 0.830901C8.56813 0.904204 8.72413 1.41733 9.93613 4.6671C10.8601 7.15941 11.3761 8.38113 11.4601 8.29561C11.5921 8.16122 9.25213 0.830901 9.04813 0.782032C8.98813 0.769815 8.84413 0.794249 8.73613 0.830901Z" fill="white"/>
<path d="M17.5201 0.977335C17.5201 1.05064 17.4241 1.09951 17.3161 1.07507C17.1481 1.05064 16.9201 1.6615 15.9961 4.56919C15.2641 6.90268 14.9161 8.14883 15.0001 8.23435C15.0601 8.29544 15.1441 8.33209 15.1681 8.29544C15.1921 8.271 15.7681 6.75607 16.4521 4.94792C17.5801 1.91806 17.8801 0.855163 17.6161 0.855163C17.5681 0.855163 17.5201 0.916249 17.5201 0.977335Z" fill="white"/>
<path d="M7.09209 1.5762C6.96009 1.66172 7.32009 2.41918 8.80809 5.2047C10.7041 8.75991 10.8601 9.01647 10.9801 8.8943C11.0761 8.80878 7.52409 1.46624 7.38009 1.46624C7.32009 1.46624 7.18809 1.51511 7.09209 1.5762Z" fill="white"/>
<path d="M19.0922 1.79609C19.0322 1.91826 18.8882 2.016 18.7682 2.016C18.6122 2.016 18.1562 2.85899 16.9682 5.37573C16.0322 7.37935 15.4322 8.78433 15.4922 8.84541C15.5642 8.91872 15.6362 8.91872 15.7082 8.84541C15.9482 8.58885 19.1042 2.55356 19.1402 2.297C19.1522 2.13817 19.2122 1.91826 19.2602 1.79609C19.3682 1.52731 19.2482 1.52731 19.0922 1.79609Z" fill="white"/>
<path d="M5.64011 2.50464C5.56811 2.60237 5.54411 2.74898 5.59211 2.8345C5.64011 2.92002 6.73211 4.44717 8.01611 6.21866C9.72011 8.5888 10.2961 9.46844 10.1761 9.54174C10.0561 9.61504 10.0561 9.67613 10.1641 9.78608C10.2601 9.88382 10.3321 9.85939 10.4401 9.6517C10.5721 9.39513 10.4041 9.10192 8.50811 6.2431C7.36811 4.52047 6.32411 2.94445 6.18011 2.72455C5.90411 2.27251 5.84411 2.24807 5.64011 2.50464Z" fill="white"/>
<path d="M20.4242 2.88342C20.2202 3.18885 20.1002 3.28659 20.0042 3.20107C19.8962 3.10333 19.5962 3.48207 18.9002 4.55718C18.3722 5.37573 17.4722 6.78071 16.8842 7.68478C16.1522 8.82098 15.8642 9.35854 15.9482 9.44406C16.0202 9.51736 16.0922 9.55401 16.1162 9.51736C16.6082 8.94315 20.2802 3.75084 20.2802 3.64089C20.2802 3.55537 20.4122 3.27437 20.5802 3.03003C20.8922 2.55356 20.9402 2.4436 20.7962 2.4436C20.7362 2.4436 20.5802 2.63908 20.4242 2.88342Z" fill="white"/>
<path d="M4.22404 3.68982C4.14004 3.81199 4.80004 4.58167 6.85204 6.71968C8.67604 8.63778 9.58804 9.66403 9.55204 9.79842C9.52804 9.90837 9.61204 10.0916 9.73204 10.2138C9.92404 10.3848 9.96004 10.3971 10.02 10.2382C10.056 10.1405 10.044 9.95724 9.99604 9.82285C9.86404 9.49299 4.65604 3.56765 4.48804 3.55543C4.41604 3.54321 4.29604 3.61651 4.22404 3.68982Z" fill="white"/>
<path d="M21.6002 4.12938C21.2162 4.5692 21.0242 4.7158 20.9282 4.63028C20.7362 4.47146 16.1882 9.78594 16.3202 10.0058C16.3802 10.128 16.4402 10.1158 16.5722 9.98141C16.6682 9.88368 17.7242 8.78413 18.9362 7.55019C20.1362 6.30404 21.1202 5.21671 21.1202 5.11897C21.1202 5.03345 21.3722 4.70359 21.6722 4.38594C21.9842 4.06829 22.2002 3.73843 22.1762 3.65291C22.1522 3.56739 21.9122 3.76286 21.6002 4.12938Z" fill="white"/>
<path d="M100.92 3.62876C97.7522 4.16631 95.1122 6.16993 93.8282 9.00432C93.1442 10.5193 92.9402 11.4966 92.9402 13.4392C92.9402 14.9174 92.9882 15.3695 93.2162 16.1758C94.2122 19.6944 96.7082 22.1378 100.188 22.993C101.58 23.3229 104.028 23.2618 105.3 22.8464C108.48 21.8202 110.724 19.5111 111.672 16.3102C111.948 15.3695 111.996 14.9785 112.008 13.5613C112.02 11.5455 111.816 10.5926 111 8.8455C109.752 6.2188 107.376 4.36179 104.46 3.72649C103.692 3.56767 101.64 3.50659 100.92 3.62876ZM103.824 6.8541C106.116 7.34278 108.096 9.41971 108.588 11.8265C108.756 12.6573 108.756 14.2211 108.588 15.0518C108.132 17.2876 106.392 19.1812 104.172 19.841C103.368 20.0853 101.688 20.0975 100.86 19.8654C98.6162 19.2668 96.8402 17.3609 96.3722 15.0518C96.1802 14.1233 96.2042 12.4374 96.4322 11.5699C97.0082 9.29753 98.7002 7.51383 100.872 6.90297C101.604 6.69527 102.984 6.67084 103.824 6.8541Z" fill="white"/>
<path d="M119.172 4.22713L118.404 4.89908L118.188 4.41039C117.792 3.4941 116.556 3.44523 116.028 4.32487C115.86 4.60587 115.8 4.93573 115.8 5.58324V6.4751H117.9H120V6.16967C120 5.87646 119.976 5.86424 119.22 5.86424C118.788 5.86424 118.44 5.81537 118.44 5.7665C118.44 5.70541 118.788 5.36333 119.208 4.99682C119.868 4.44704 119.988 4.276 119.988 3.93392C120 3.72623 119.988 3.54297 119.964 3.54297C119.952 3.54297 119.592 3.8484 119.172 4.22713ZM117.624 4.60587C117.768 4.74026 117.84 4.97238 117.84 5.3389V5.86424H117.12H116.4V5.35112C116.4 5.0579 116.484 4.75247 116.604 4.61808C116.844 4.34931 117.336 4.33709 117.624 4.60587Z" fill="white"/>
<path d="M30.1201 13.4388V22.9683H31.7401H33.3601V19.242V15.5158H35.3881C37.7281 15.5158 38.9041 15.3325 40.0321 14.795C40.9081 14.3796 41.8801 13.4999 42.3361 12.7303C42.9961 11.5574 43.2481 9.74926 42.9481 8.28319C42.5161 6.18184 41.0641 4.74021 38.8201 4.14156C38.0881 3.94609 37.4641 3.90944 34.0561 3.90944H30.1201V13.4388ZM37.9921 7.26917C38.9521 7.5746 39.4921 8.16102 39.7081 9.16283C39.9001 10.0303 39.6721 10.8244 39.0721 11.4352C38.3401 12.1927 37.7161 12.3393 35.3161 12.3393H33.3601V9.71261V7.08591H35.3761C36.8401 7.08591 37.5601 7.13478 37.9921 7.26917Z" fill="white"/>
<path d="M46.3201 13.4388V22.9683H47.9401H49.5601L49.5841 19.5719L49.6201 16.1877H50.4961H51.3601L53.5561 19.5474L55.7401 22.9072L57.6961 22.9438L59.6521 22.9683L59.3761 22.5529C59.0041 21.9787 57.2881 19.3886 55.9321 17.3728C54.8641 15.809 54.8401 15.7479 55.1161 15.6502C56.5561 15.0882 57.8041 14.0008 58.3441 12.828C59.4241 10.4945 58.8961 7.3669 57.1441 5.71758C56.2681 4.89903 55.4641 4.45921 54.2881 4.15378C53.4721 3.93387 52.9561 3.90944 49.8361 3.90944H46.3201V13.4388ZM53.9401 7.41577C54.2041 7.55016 54.5761 7.83116 54.7681 8.01442C55.3801 8.63749 55.5001 9.00401 55.5001 10.2013C55.5001 11.423 55.3681 11.7895 54.6721 12.5103C54.0241 13.1579 53.3881 13.3167 51.3361 13.3167H49.5601V10.1891V7.06147L51.5161 7.11034C53.2201 7.14699 53.5201 7.18365 53.9401 7.41577Z" fill="white"/>
<path d="M62.8801 13.4388V22.9683H64.5001H66.1201V13.4388V3.90944H64.5001H62.8801V13.4388Z" fill="white"/>
<path d="M70.8 13.4388V22.9683H72.42H74.04L74.052 16.823V10.69L77.052 13.8054L80.052 16.9207L80.964 15.9434C81.468 15.4058 82.788 14.0131 83.892 12.8524L85.92 10.7388L85.944 16.823L85.98 22.9072H87.6H89.22L89.256 13.4022L89.28 3.90944H88.62H87.948L85.824 6.13297C84.66 7.3669 82.872 9.2117 81.864 10.2624L80.028 12.156L76.044 8.02663L72.06 3.89722L71.436 3.90944H70.8V13.4388Z" fill="white"/>
<path d="M3.01211 4.93589C2.86811 5.10693 3.09611 5.31462 7.64411 8.97978C8.64011 9.7739 8.96411 10.1038 8.86811 10.2137C8.70011 10.4214 9.55211 10.9712 9.75611 10.7635C9.93611 10.5802 9.32411 9.99381 6.28811 7.39155C5.04011 6.31643 3.86411 5.29019 3.66011 5.10693C3.25211 4.71598 3.20411 4.70376 3.01211 4.93589Z" fill="white"/>
<path d="M22.5 5.5832C21.912 6.09632 21.672 6.23071 21.6 6.12076C21.54 5.99859 20.808 6.58501 19.032 8.18546C17.4 9.65153 16.584 10.4579 16.668 10.5434C16.8 10.6778 21.708 6.89044 21.72 6.6461C21.72 6.53614 22.44 5.90085 23.376 5.18003C23.496 5.09451 23.508 5.02121 23.424 4.96012C23.364 4.92347 22.944 5.19225 22.5 5.5832Z" fill="white"/>
<path d="M1.99203 6.42635C1.94403 6.53631 1.93203 6.64626 1.94403 6.65848C1.96803 6.6707 3.19203 7.41594 4.68003 8.3078C8.16003 10.3969 8.28002 10.4702 8.20802 10.6657C8.17202 10.7635 8.38802 10.9467 8.76002 11.1544C9.31202 11.4598 9.37202 11.4721 9.44402 11.2766C9.49202 11.1422 9.44402 11.02 9.30002 10.9467C9.18002 10.8734 8.95202 10.6902 8.77202 10.5558C8.42402 10.2748 2.43603 6.36527 2.20803 6.26753C2.13603 6.24309 2.04003 6.3164 1.99203 6.42635Z" fill="white"/>
<path d="M23.1722 7.09812C22.4042 7.5868 22.0082 7.77006 21.9482 7.67232C21.8402 7.50128 16.9202 10.8366 16.9202 11.0809C16.9202 11.1664 16.9442 11.2397 16.9802 11.2397C17.1362 11.2397 21.6722 8.50309 21.8402 8.31984C21.9362 8.20988 22.4762 7.83115 23.0402 7.48907C24.3242 6.69495 24.5402 6.52391 24.4082 6.45061C24.3482 6.41395 23.7842 6.70717 23.1722 7.09812Z" fill="white"/>
<path d="M115.8 8.85733V10.1401H117.9H120V8.85733C120 7.57453 120 7.57453 119.7 7.57453C119.424 7.57453 119.412 7.61118 119.376 8.51525L119.34 9.46819H118.74H118.14L118.104 8.57634C118.068 7.73335 118.056 7.6967 117.78 7.6967C117.504 7.6967 117.492 7.73335 117.456 8.57634L117.42 9.46819H116.94H116.46L116.424 8.51525C116.388 7.61118 116.376 7.57453 116.1 7.57453C115.8 7.57453 115.8 7.57453 115.8 8.85733Z" fill="white"/>
<path d="M1.20013 8.0511C1.20013 8.29544 1.10413 8.24657 5.37613 10.0792C7.03213 10.7878 7.56013 11.0687 7.53613 11.2154C7.51213 11.362 7.70413 11.4963 8.22013 11.6918C9.07213 12.0095 9.24013 12.0339 9.24013 11.8018C9.24013 11.7163 8.79613 11.3986 8.25613 11.1176C7.32013 10.6289 1.34413 7.81897 1.24813 7.81897C1.22413 7.81897 1.20013 7.91671 1.20013 8.0511Z" fill="white"/>
<path d="M23.7002 8.62535C22.2242 9.29729 21.9602 9.3706 21.9602 9.1629C21.9602 8.99186 17.1722 11.3987 17.1722 11.5697C17.1602 11.6552 17.2202 11.7285 17.2922 11.7285C17.5082 11.7285 21.8642 9.88372 22.0202 9.7249C22.1042 9.65159 22.8602 9.28508 23.7122 8.91856C25.4882 8.16109 25.4042 8.20996 25.2482 8.07557C25.1882 8.01449 24.5162 8.25883 23.7002 8.62535Z" fill="white"/>
<path d="M0.600098 9.73735C0.600098 9.94504 1.0441 10.0916 3.6961 10.8247C6.1681 11.5088 6.7681 11.7165 6.7441 11.8754C6.7201 12.022 6.9241 12.1197 7.6441 12.2785C8.1601 12.3885 8.6761 12.5106 8.7961 12.5351C8.9401 12.584 9.0001 12.5351 9.0001 12.3763C9.0001 12.193 8.8561 12.1075 8.3761 11.9853C8.0281 11.8998 7.5721 11.741 7.3801 11.6554C7.0681 11.5088 4.2481 10.617 1.8481 9.89617C1.4401 9.774 0.996098 9.63961 0.852098 9.59074C0.660098 9.52965 0.600098 9.5663 0.600098 9.73735Z" fill="white"/>
<path d="M23.7841 10.238C22.4521 10.6412 21.9121 10.7511 21.8521 10.6534C21.7321 10.4457 17.4001 11.924 17.4001 12.1683C17.4001 12.2661 17.4361 12.3394 17.4721 12.3394C17.7121 12.3394 21.4561 11.3131 21.8761 11.1299C22.1521 11.0077 23.1721 10.69 24.1561 10.4335C25.6801 10.0303 26.1721 9.79818 25.7281 9.70044C25.6681 9.68822 24.7921 9.93257 23.7841 10.238Z" fill="white"/>
<path d="M115.8 12.5351C115.8 14.05 115.8 14.0622 116.076 14.0256C116.304 13.9889 116.34 13.9034 116.376 13.4025L116.412 12.8283H118.212H120V12.5228V12.2174H118.2H116.4V11.6066C116.4 11.0323 116.376 10.9957 116.1 10.9957H115.8V12.5351Z" fill="white"/>
<path d="M0.240021 11.5209C0.240021 11.6431 0.384021 11.7408 0.636021 11.7897C1.27202 11.8997 5.72402 12.4617 5.94002 12.4617C6.08402 12.4617 6.13202 12.535 6.08402 12.6938C6.03602 12.8893 6.13202 12.9259 6.82802 12.9992C8.16002 13.1214 8.88002 13.0969 8.88002 12.9137C8.88002 12.7915 8.50802 12.6816 7.65602 12.5472C6.97202 12.4372 5.29202 12.1562 3.90002 11.9241C0.192021 11.2888 0.240021 11.301 0.240021 11.5209Z" fill="white"/>
<path d="M23.832 11.7655C22.224 12.0098 21.54 12.0831 21.48 11.9854C21.432 11.8876 20.856 11.9487 19.512 12.2053C18.468 12.413 17.592 12.584 17.568 12.6084C17.556 12.6329 17.568 12.7184 17.616 12.7917C17.688 12.9139 18.072 12.9017 19.26 12.755C20.124 12.6573 21.012 12.5229 21.24 12.4618C21.468 12.3885 22.668 12.2053 23.904 12.0465C25.152 11.8998 26.196 11.7288 26.244 11.6922C26.496 11.4234 25.86 11.4478 23.832 11.7655Z" fill="white"/>
<path d="M18.036 13.1579C17.88 13.1823 17.76 13.2923 17.76 13.39C17.76 13.5366 18.408 13.561 22.08 13.561C26.028 13.561 26.4 13.5488 26.4 13.3533C26.4 13.1701 26.16 13.1579 23.7 13.2312C22.02 13.28 21 13.2556 21 13.1823C21 13.0723 18.576 13.0479 18.036 13.1579Z" fill="white"/>
<path d="M0.120117 13.3902C0.120117 13.549 0.444117 13.5735 2.83212 13.5368C5.41212 13.5002 5.53212 13.5124 5.47212 13.7323C5.42412 13.94 5.49612 13.9522 6.99612 13.8667C8.43612 13.7811 8.74812 13.7078 8.76012 13.4268C8.76012 13.3291 4.84812 13.1947 2.19612 13.1947C0.396117 13.1947 0.120117 13.2192 0.120117 13.3902Z" fill="white"/>
<path d="M17.9041 14.001C17.9521 14.2576 17.5681 14.1843 22.8601 14.9173C24.3841 15.125 25.7761 15.3205 25.9681 15.3571C26.2441 15.4182 26.2921 15.3938 26.2561 15.1983C26.2201 15.0028 25.9081 14.9417 23.3641 14.6363C21.3481 14.392 20.4481 14.2331 20.3161 14.111C20.2081 14.001 19.9201 13.9277 19.5721 13.9277C19.2481 13.9277 18.7321 13.891 18.4201 13.8544C17.9041 13.7811 17.8561 13.7933 17.9041 14.001Z" fill="white"/>
<path d="M117.864 14.8075C116.724 15.3573 115.812 15.8582 115.836 15.9193C115.86 16.017 118.116 17.1288 119.616 17.7763C120 17.9474 120 17.9474 120 17.6053C120 17.3365 119.904 17.2265 119.46 17.0066L118.92 16.7379V15.8827V15.0152L119.46 14.7831C119.928 14.5754 120 14.5021 120 14.1723C120 13.9768 119.988 13.8057 119.976 13.818C119.952 13.818 119.004 14.27 117.864 14.8075ZM118.296 16.1637L118.26 16.4569L117.66 16.1881L117.06 15.9193L117.66 15.6017L118.26 15.2962L118.296 15.5894C118.32 15.7483 118.32 16.0048 118.296 16.1637Z" fill="white"/>
<path d="M6.54022 14.2453C5.82022 14.3308 4.11622 14.5263 2.76022 14.6607C1.40422 14.8073 0.252222 14.9784 0.192222 15.0394C-0.071778 15.2838 0.564222 15.2716 2.64022 14.9784C3.85222 14.7951 4.88422 14.6607 4.94422 14.6607C5.00422 14.6607 5.01622 14.7707 4.98022 14.9051C4.90822 15.125 4.94422 15.1494 5.18422 15.1005C5.34022 15.0639 6.06022 14.9173 6.78022 14.7829C8.20822 14.5019 8.64022 14.3675 8.64022 14.172C8.64022 14.0254 8.23222 14.0376 6.54022 14.2453Z" fill="white"/>
<path d="M17.8801 14.7094C17.8801 14.8194 18.1201 14.966 18.5161 15.0759C18.8521 15.1737 20.5801 15.6746 22.3441 16.1755C24.0961 16.6886 25.6201 17.104 25.7281 17.104C26.0521 17.104 25.9441 16.7497 25.5961 16.6642C25.4041 16.6153 24.0361 16.261 22.5481 15.8701C21.0481 15.4669 19.7881 15.1493 19.7521 15.1493C19.7161 15.1493 19.6801 15.0759 19.6801 14.9904C19.6801 14.8927 19.4041 14.7705 18.9841 14.685C18.0721 14.4895 17.8801 14.5017 17.8801 14.7094Z" fill="white"/>
<path d="M6.72019 15.1495C5.76019 15.406 3.98419 15.8703 2.77219 16.1757C1.54819 16.4934 0.528185 16.7622 0.504185 16.7866C0.480185 16.8232 0.492185 16.8965 0.528185 16.9576C0.564185 17.0187 1.47619 16.8232 2.65219 16.4934L4.70419 15.9069L4.62019 16.2124C4.56019 16.4812 4.58419 16.5056 4.76419 16.4323C4.88419 16.3956 5.77219 16.078 6.75619 15.7359C8.19619 15.235 8.52019 15.0762 8.52019 14.8929C8.52019 14.7585 8.50819 14.6608 8.49619 14.673C8.47219 14.673 7.68019 14.8929 6.72019 15.1495Z" fill="white"/>
<path d="M17.94 15.3695C17.856 15.6016 18.132 15.846 18.6 15.9681C18.768 16.017 20.316 16.6889 22.056 17.4831C24.516 18.5948 25.236 18.8758 25.284 18.7414C25.32 18.6437 25.308 18.5215 25.26 18.4726C25.224 18.4238 23.796 17.8129 22.104 17.0921C20.412 16.3835 19.032 15.7482 19.044 15.6871C19.056 15.6138 18.828 15.4794 18.54 15.3695C18.06 15.1862 18.012 15.1862 17.94 15.3695Z" fill="white"/>
<path d="M6.84008 16.1391C5.95208 16.5301 5.02808 16.921 4.80008 16.9943C3.92408 17.2753 1.08008 18.497 1.08008 18.5948C1.08008 18.7903 1.42808 18.6803 2.89208 18.0328L4.38008 17.3608L4.41608 17.6541C4.45208 17.9473 4.50008 17.9228 6.48008 16.921C7.59608 16.359 8.54408 15.8337 8.58008 15.7482C8.80808 15.3817 8.31608 15.4916 6.84008 16.1391Z" fill="white"/>
<path d="M17.844 16.1268C17.796 16.3223 18.312 16.701 21.048 18.4359C23.892 20.2318 24.324 20.4762 24.48 20.3296C24.636 20.1707 24.636 20.1341 24.48 20.0363C24.384 19.963 22.932 19.1201 21.264 18.1305C19.608 17.1531 18.264 16.2979 18.3 16.249C18.336 16.1879 18.264 16.078 18.132 16.0169C17.952 15.9069 17.892 15.9314 17.844 16.1268Z" fill="white"/>
<path d="M6.56417 17.4095C5.52017 18.0448 4.63217 18.5702 4.58417 18.5702C4.36817 18.5702 1.92017 20.1095 1.92017 20.2439C1.92017 20.4394 1.96817 20.415 3.34817 19.5475C3.90017 19.2177 4.39217 18.9367 4.45217 18.9367C4.51217 18.9367 4.56017 19.0466 4.56017 19.181C4.56017 19.3154 4.58417 19.4254 4.62017 19.4254C4.77617 19.4254 8.70017 16.591 8.70017 16.4688C8.70017 16.1634 8.38817 16.2978 6.56417 17.4095Z" fill="white"/>
<path d="M6.96018 18.4604C6.00018 19.2668 5.06418 20.012 4.86018 20.122C4.26018 20.4518 2.88018 21.6491 2.95218 21.7713C3.01218 21.869 3.31218 21.6369 4.59618 20.5373C4.78818 20.3663 4.81218 20.3785 4.88418 20.6351C4.92018 20.8061 5.01618 20.8794 5.12418 20.8428C5.22018 20.8061 6.12018 20.012 7.14018 19.0957C8.80818 17.5686 9.16818 17.1287 8.82018 17.031C8.76018 17.0066 7.92018 17.6541 6.96018 18.4604Z" fill="white"/>
<path d="M17.6642 17.1285C17.7002 17.214 18.9722 18.3502 20.5202 19.6453C23.0402 21.7833 23.3282 21.991 23.4962 21.8199C23.6042 21.71 23.6642 21.6122 23.6282 21.5878C23.4242 21.429 19.1042 18.0326 18.5282 17.5683C17.7602 16.9697 17.5802 16.872 17.6642 17.1285Z" fill="white"/>
<path d="M6.63603 20.3784C5.23203 21.82 4.11603 23.0417 4.14003 23.0784C4.17603 23.115 4.46403 22.8707 4.78803 22.553C5.36403 21.9666 5.37603 21.9666 5.55603 22.2354C5.73603 22.492 5.78403 22.4431 7.52403 20.3417C9.25203 18.2404 9.48003 17.9227 9.27603 17.8006C9.22803 17.7639 8.02803 18.9245 6.63603 20.3784Z" fill="white"/>
<path d="M17.2442 17.8005C17.1602 17.8738 17.5082 18.3014 18.8882 19.7919C19.2962 20.2317 20.1842 21.2091 20.8682 21.9665C21.8762 23.0783 22.1402 23.3104 22.2842 23.2005C22.3682 23.115 22.4282 23.005 22.4162 22.9561C22.3802 22.8706 17.4002 17.715 17.3402 17.715C17.3282 17.715 17.2802 17.7516 17.2442 17.8005Z" fill="white"/>
<path d="M115.8 18.2526C115.8 18.5703 116.016 18.6802 117.696 19.2422C118.044 19.3522 118.296 19.4866 118.26 19.5354C118.224 19.5721 117.672 19.8042 117.036 20.0363C116.4 20.2685 115.86 20.5128 115.836 20.5861C115.824 20.6472 116.328 20.8915 116.976 21.1237C117.612 21.3558 118.188 21.5757 118.236 21.6246C118.32 21.6979 117.132 22.1988 116.076 22.5286C115.872 22.5897 115.8 22.7119 115.8 22.9685V23.3105L117.096 22.8463C119.58 21.9422 119.916 21.8078 119.964 21.6857C119.976 21.6124 119.4 21.3558 118.68 21.0992C117.948 20.8305 117.36 20.6105 117.36 20.5861C117.36 20.5739 117.96 20.3418 118.68 20.0852C119.412 19.8286 119.988 19.5599 119.964 19.4988C119.928 19.3888 116.244 17.9838 115.956 17.9716C115.872 17.9594 115.8 18.0938 115.8 18.2526Z" fill="white"/>
<path d="M16.7401 18.4478C16.6921 18.5334 16.7521 18.7411 16.8841 18.9121C17.0161 19.0954 17.8681 20.3415 18.7801 21.6854C20.7721 24.6297 20.6521 24.4831 20.9281 24.2754C21.1201 24.1411 20.9401 23.8723 19.0081 21.2578C17.8441 19.6818 16.8721 18.3745 16.8601 18.3501C16.8361 18.3257 16.7881 18.3745 16.7401 18.4478Z" fill="white"/>
<path d="M8.13615 20.5373C7.33215 21.698 6.37215 22.9686 6.03615 23.384C5.68815 23.7871 5.40015 24.1659 5.40015 24.2147C5.40015 24.4468 5.64015 24.2758 5.88015 23.8849C6.18015 23.3962 6.20415 23.384 6.50415 23.6649C6.62415 23.7749 6.74415 23.836 6.75615 23.8116C6.78015 23.7871 7.51215 22.6143 8.37615 21.2215C9.81615 18.9247 10.0441 18.4482 9.72015 18.4482C9.67215 18.4482 8.95215 19.3889 8.13615 20.5373Z" fill="white"/>
<path d="M16.1401 19.0833C16.0921 19.2177 16.5961 20.3539 17.6041 22.3331C19.0681 25.2286 19.1641 25.3752 19.3921 25.253C19.6321 25.1064 19.5841 24.9965 18.0961 22.2965C17.2441 20.7449 16.4761 19.3521 16.3801 19.1811C16.2481 18.9245 16.2121 18.9001 16.1401 19.0833Z" fill="white"/>
<path d="M9.1802 21.0992C7.8602 23.6404 7.6202 24.0802 7.2602 24.6422C6.9482 25.1064 6.8402 25.5096 7.1402 25.1186C7.2362 24.9965 7.3322 24.8254 7.3562 24.7521C7.3922 24.6666 7.5002 24.7033 7.6682 24.8499C7.8002 24.9842 7.9442 25.0576 7.9682 25.0331C7.9922 25.0087 8.5922 23.7014 9.2882 22.1376C10.4522 19.5598 10.6202 19.0589 10.3322 19.0589C10.2722 19.0589 9.7562 19.9752 9.1802 21.0992Z" fill="white"/>
<path d="M9.91205 22.5044C9.32405 24.1415 8.80805 25.4976 8.76005 25.5343C8.61605 25.6442 8.52005 26.0229 8.64005 26.0229C8.71205 26.0229 8.76005 25.9619 8.76005 25.8886C8.76005 25.803 8.89205 25.7908 9.10805 25.8397C9.50405 25.9252 9.36005 26.2917 10.548 22.3334C11.328 19.78 11.376 19.5478 11.124 19.5478C11.04 19.5478 10.536 20.7573 9.91205 22.5044Z" fill="white"/>
<path d="M16.3201 22.7242C16.9081 24.4835 17.4241 25.9618 17.4601 26.0228C17.4961 26.0717 17.6281 26.0962 17.7721 26.0595C18.1081 25.9618 18.1081 25.9984 16.7641 22.5409C16.0201 20.6228 15.5521 19.5966 15.4321 19.5722C15.2881 19.5355 15.5041 20.3174 16.3201 22.7242Z" fill="white"/>
<path d="M14.4842 19.8774C14.4602 19.9384 14.6882 21.2701 15.0002 22.8461C15.3122 24.4222 15.6002 25.9127 15.6482 26.157C15.7202 26.5479 15.7562 26.5968 16.0202 26.5357C16.1882 26.5113 16.3202 26.438 16.3202 26.3891C16.3202 26.2914 15.0962 21.0991 14.8682 20.2439C14.7602 19.8163 14.6042 19.6697 14.4842 19.8774Z" fill="white"/>
<path d="M11.7602 19.975C11.7602 20.0117 11.4602 21.4533 11.1002 23.1637C10.7402 24.8863 10.4642 26.3402 10.5002 26.4013C10.5482 26.4624 10.6922 26.5112 10.8482 26.5112C11.1122 26.5112 11.1362 26.4013 11.6162 23.3592C11.8922 21.6366 12.1202 20.1461 12.1202 20.0606C12.1202 19.9872 12.0362 19.9139 11.9402 19.9139C11.8442 19.9139 11.7602 19.9384 11.7602 19.975Z" fill="white"/>
<path d="M12.7081 20.0607C12.6961 20.0852 12.5761 21.5757 12.4321 23.396C12.1681 26.7435 12.1801 26.8779 12.6121 26.8779C12.7921 26.8779 12.8281 26.658 12.8881 25.253C13.0561 21.1358 13.0681 20.0363 12.8881 20.0363C12.7921 20.0363 12.7081 20.0485 12.7081 20.0607Z" fill="white"/>
<path d="M13.6082 20.9769C13.6442 21.5022 13.7402 22.9683 13.8002 24.2511C13.8722 25.5217 13.9562 26.6335 13.9802 26.7068C14.0042 26.7923 14.1602 26.8167 14.3282 26.7923C14.6042 26.7312 14.6402 26.6823 14.5802 26.3403C14.5442 26.1326 14.4122 24.8864 14.2802 23.5792C13.9322 20.1217 13.9202 20.0362 13.7162 20.0362C13.5602 20.0362 13.5482 20.1828 13.6082 20.9769Z" fill="white"/>
<path d="M22.6802 25.0333C22.6802 25.0944 22.8002 25.1677 22.9562 25.1921C23.1962 25.2288 23.2202 25.3021 23.2562 26.0473C23.3042 27.1469 23.5202 27.1224 23.5202 26.0229C23.5202 25.1921 23.5322 25.1677 23.8202 25.1677C23.9882 25.1677 24.1202 25.1066 24.1202 25.0455C24.1202 24.9722 23.7962 24.9233 23.4002 24.9233C23.0042 24.9233 22.6802 24.9722 22.6802 25.0333Z" fill="white"/>
<path d="M24.5042 25.864C24.5402 26.9147 24.7562 27.1591 24.8162 26.2183L24.8522 25.6319L25.1522 25.9129L25.4402 26.1817L25.7282 25.9129L26.0282 25.6319L26.0642 26.2183C26.0882 26.5482 26.1602 26.8048 26.2202 26.7926C26.3522 26.7559 26.4602 24.9233 26.3162 24.9233C26.2682 24.9233 26.0522 25.0944 25.8362 25.3143L25.4402 25.7052L25.0442 25.3143C24.8282 25.0944 24.6122 24.9233 24.5642 24.9233C24.5162 24.9233 24.4802 25.3509 24.5042 25.864Z" fill="white"/>
</g>
<defs>
<clipPath id="clip0_10_376">
<rect width="120" height="27" fill="white"/>
</clipPath>
</defs>
</svg>
