<svg width="250" height="56" viewBox="0 0 250 56" fill="none" xmlns="http://www.w3.org/2000/svg">
<g clip-path="url(#clip0_3447_390)">
<path d="M25.3 0.200018C25.05 0.375018 25.1 1.50002 25.475 5.77502C26.3 14.85 26.275 14.575 26.675 14.175C26.975 13.875 26.975 12.9 26.75 7.72502C26.4 -0.299982 26.35 -0.449982 25.3 0.200018Z" fill="#0054A6"/>
<path d="M28.7002 0.0500069C28.7002 0.100007 28.5502 3.15001 28.3752 6.87501C28.1252 12.375 28.1502 13.7 28.4002 13.975C28.8752 14.5 28.9002 14.45 29.5002 7.02501C29.9502 1.57501 29.9752 0.400007 29.7002 0.225007C29.4002 0.0250069 28.8002 -0.074993 28.7002 0.0500069Z" fill="#0054A6"/>
<path d="M21.7251 0.70001C21.4001 0.85001 21.5751 1.85001 23.0501 8.22501C23.9751 12.275 24.8001 15.625 24.8751 15.7C25.3001 16.15 25.3001 15.1 24.8251 12.425C23.3001 3.75001 22.6251 0.50001 22.4001 0.52501C22.2501 0.52501 21.9501 0.60001 21.7251 0.70001Z" fill="#0054A6"/>
<path d="M32.1752 1.30001C32.1002 1.62501 31.5002 4.90001 30.8502 8.57501C29.9752 13.55 29.7502 15.35 29.9502 15.55C30.1252 15.725 30.2752 15.8 30.3252 15.725C30.4252 15.625 33.7252 1.15001 33.6502 1.07501C33.6502 1.05001 33.3252 0.975009 32.9752 0.875009C32.4252 0.750009 32.3002 0.800009 32.1752 1.30001Z" fill="#0054A6"/>
<path d="M18.2001 1.69999C17.8501 1.84999 18.1751 2.89999 20.7001 9.54999C22.6251 14.65 23.7001 17.15 23.8751 16.975C24.1501 16.7 19.2751 1.69999 18.8501 1.59999C18.7251 1.57499 18.4251 1.62499 18.2001 1.69999Z" fill="#0054A6"/>
<path d="M36.5002 2.00002C36.5002 2.15002 36.3002 2.25002 36.0752 2.20002C35.7252 2.15002 35.2502 3.40002 33.3252 9.35002C31.8002 14.125 31.0752 16.675 31.2502 16.85C31.3752 16.975 31.5502 17.05 31.6002 16.975C31.6502 16.925 32.8502 13.825 34.2752 10.125C36.6252 3.92502 37.2502 1.75002 36.7002 1.75002C36.6002 1.75002 36.5002 1.87502 36.5002 2.00002Z" fill="#0054A6"/>
<path d="M14.7751 3.22502C14.5001 3.40002 15.2501 4.95002 18.3501 10.65C22.3001 17.925 22.6251 18.45 22.8751 18.2C23.0751 18.025 15.6751 3.00002 15.3751 3.00002C15.2501 3.00002 14.9751 3.10002 14.7751 3.22502Z" fill="#0054A6"/>
<path d="M39.7752 3.67502C39.6502 3.92502 39.3502 4.12502 39.1002 4.12502C38.7752 4.12502 37.8252 5.85002 35.3502 11C33.4002 15.1 32.1502 17.975 32.2752 18.1C32.4252 18.25 32.5752 18.25 32.7252 18.1C33.2252 17.575 39.8002 5.22502 39.8752 4.70002C39.9002 4.37502 40.0252 3.92502 40.1252 3.67502C40.3502 3.12502 40.1002 3.12502 39.7752 3.67502Z" fill="#0054A6"/>
<path d="M11.7502 5.125C11.6002 5.325 11.5502 5.625 11.6502 5.8C11.7502 5.975 14.0252 9.1 16.7002 12.725C20.2502 17.575 21.4502 19.375 21.2002 19.525C20.9502 19.675 20.9502 19.8 21.1752 20.025C21.3752 20.225 21.5252 20.175 21.7502 19.75C22.0252 19.225 21.6752 18.625 17.7252 12.775C15.3502 9.25 13.1752 6.025 12.8752 5.575C12.3002 4.65 12.1752 4.6 11.7502 5.125Z" fill="#0054A6"/>
<path d="M42.5502 5.89997C42.1252 6.52497 41.8752 6.72497 41.6752 6.54997C41.4502 6.34997 40.8252 7.12497 39.3752 9.32497C38.2752 11 36.4002 13.875 35.1752 15.725C33.6502 18.05 33.0502 19.15 33.2252 19.325C33.3752 19.475 33.5252 19.55 33.5752 19.475C34.6002 18.3 42.2502 7.67497 42.2502 7.44997C42.2502 7.27497 42.5252 6.69997 42.8752 6.19997C43.5252 5.22497 43.6252 4.99997 43.3252 4.99997C43.2002 4.99997 42.8752 5.39997 42.5502 5.89997Z" fill="#0054A6"/>
<path d="M8.80023 7.54999C8.62523 7.79999 10.0002 9.37499 14.2752 13.75C18.0752 17.675 19.9752 19.775 19.9002 20.05C19.8502 20.275 20.0252 20.65 20.2752 20.9C20.6752 21.25 20.7502 21.275 20.8752 20.95C20.9502 20.75 20.9252 20.375 20.8252 20.1C20.5502 19.425 9.70023 7.29999 9.35023 7.27499C9.20023 7.24999 8.95023 7.39999 8.80023 7.54999Z" fill="#0054A6"/>
<path d="M45 8.45001C44.2 9.35001 43.8 9.65001 43.6 9.47501C43.2 9.15001 33.725 20.025 34 20.475C34.125 20.725 34.25 20.7 34.525 20.425C34.725 20.225 36.925 17.975 39.45 15.45C41.95 12.9 44 10.675 44 10.475C44 10.3 44.525 9.62501 45.15 8.97501C45.8 8.32501 46.25 7.65001 46.2 7.47501C46.15 7.30001 45.65 7.70001 45 8.45001Z" fill="#0054A6"/>
<path d="M210.25 7.42502C203.65 8.52502 198.15 12.625 195.475 18.425C194.05 21.525 193.625 23.525 193.625 27.5C193.625 30.525 193.725 31.45 194.2 33.1C196.275 40.3 201.475 45.3 208.725 47.05C211.625 47.725 216.725 47.6 219.375 46.75C226 44.65 230.675 39.925 232.65 33.375C233.225 31.45 233.325 30.65 233.35 27.75C233.375 23.625 232.95 21.675 231.25 18.1C228.65 12.725 223.7 8.92502 217.625 7.62502C216.025 7.30002 211.75 7.17502 210.25 7.42502ZM216.3 14.025C221.075 15.025 225.2 19.275 226.225 24.2C226.575 25.9 226.575 29.1 226.225 30.8C225.275 35.375 221.65 39.25 217.025 40.6C215.35 41.1 211.85 41.125 210.125 40.65C205.45 39.425 201.75 35.525 200.775 30.8C200.375 28.9 200.425 25.45 200.9 23.675C202.1 19.025 205.625 15.375 210.15 14.125C211.675 13.7 214.55 13.65 216.3 14.025Z" fill="#0054A6"/>
<path d="M248.275 8.65L246.675 10.025L246.225 9.025C245.4 7.15 242.825 7.05 241.725 8.85C241.375 9.425 241.25 10.1 241.25 11.425V13.25H245.625H250V12.625C250 12.025 249.95 12 248.375 12C247.475 12 246.75 11.9 246.75 11.8C246.75 11.675 247.475 10.975 248.35 10.225C249.725 9.1 249.975 8.75 249.975 8.05C250 7.625 249.975 7.25 249.925 7.25C249.9 7.25 249.15 7.875 248.275 8.65ZM245.05 9.425C245.35 9.7 245.5 10.175 245.5 10.925V12H244H242.5V10.95C242.5 10.35 242.675 9.725 242.925 9.45C243.425 8.9 244.45 8.875 245.05 9.425Z" fill="#0054A6"/>
<path d="M62.75 27.5V47H66.125H69.5V39.375V31.75H73.725C78.6 31.75 81.05 31.375 83.4 30.275C85.225 29.425 87.25 27.625 88.2 26.05C89.575 23.65 90.1 19.95 89.475 16.95C88.575 12.65 85.55 9.7 80.875 8.475C79.35 8.075 78.05 8 70.95 8H62.75V27.5ZM79.15 14.875C81.15 15.5 82.275 16.7 82.725 18.75C83.125 20.525 82.65 22.15 81.4 23.4C79.875 24.95 78.575 25.25 73.575 25.25H69.5V19.875V14.5H73.7C76.75 14.5 78.25 14.6 79.15 14.875Z" fill="#0054A6"/>
<path d="M96.5 27.5V47H99.875H103.25L103.3 40.05L103.375 33.125H105.2H107L111.575 40L116.125 46.875L120.2 46.95L124.275 47L123.7 46.15C122.925 44.975 119.35 39.675 116.525 35.55C114.3 32.35 114.25 32.225 114.825 32.025C117.825 30.875 120.425 28.65 121.55 26.25C123.8 21.475 122.7 15.075 119.05 11.7C117.225 10.025 115.55 9.125 113.1 8.5C111.4 8.05 110.325 8 103.825 8H96.5V27.5ZM112.375 15.175C112.925 15.45 113.7 16.025 114.1 16.4C115.375 17.675 115.625 18.425 115.625 20.875C115.625 23.375 115.35 24.125 113.9 25.6C112.55 26.925 111.225 27.25 106.95 27.25H103.25V20.85V14.45L107.325 14.55C110.875 14.625 111.5 14.7 112.375 15.175Z" fill="#0054A6"/>
<path d="M131 27.5V47H134.375H137.75V27.5V8H134.375H131V27.5Z" fill="#0054A6"/>
<path d="M147.5 27.5V47H150.875H154.25L154.275 34.425V21.875L160.525 28.25L166.775 34.625L168.675 32.625C169.725 31.525 172.475 28.675 174.775 26.3L179 21.975L179.05 34.425L179.125 46.875H182.5H185.875L185.95 27.425L186 8H184.625H183.225L178.8 12.55C176.375 15.075 172.65 18.85 170.55 21L166.725 24.875L158.425 16.425L150.125 7.975L148.825 8H147.5V27.5Z" fill="#0054A6"/>
<path d="M6.27516 10.1C5.97516 10.45 6.45016 10.875 15.9252 18.375C18.0002 20 18.6752 20.675 18.4752 20.9C18.1252 21.325 19.9002 22.45 20.3252 22.025C20.7002 21.65 19.4252 20.45 13.1002 15.125C10.5002 12.925 8.05016 10.825 7.62516 10.45C6.77516 9.64997 6.67516 9.62497 6.27516 10.1Z" fill="#0054A6"/>
<path d="M46.8752 11.425C45.6502 12.475 45.1502 12.75 45.0002 12.525C44.8752 12.275 43.3502 13.475 39.6502 16.75C36.2502 19.75 34.5502 21.4 34.7252 21.575C35.0002 21.85 45.2252 14.1 45.2502 13.6C45.2502 13.375 46.7502 12.075 48.7002 10.6C48.9502 10.425 48.9752 10.275 48.8002 10.15C48.6752 10.075 47.8002 10.625 46.8752 11.425Z" fill="#0054A6"/>
<path d="M4.15003 13.15C4.05003 13.375 4.02503 13.6 4.05003 13.625C4.10003 13.65 6.65003 15.175 9.75003 17C17 21.275 17.25 21.425 17.1 21.825C17.025 22.025 17.475 22.4 18.25 22.825C19.4 23.45 19.525 23.475 19.675 23.075C19.775 22.8 19.675 22.55 19.375 22.4C19.125 22.25 18.65 21.875 18.275 21.6C17.55 21.025 5.07503 13.025 4.60003 12.825C4.45003 12.775 4.25003 12.925 4.15003 13.15Z" fill="#0054A6"/>
<path d="M48.275 14.525C46.675 15.525 45.85 15.9 45.725 15.7C45.5 15.35 35.25 22.175 35.25 22.675C35.25 22.85 35.3 23 35.375 23C35.7 23 45.15 17.4 45.5 17.025C45.7 16.8 46.825 16.025 48 15.325C50.675 13.7 51.125 13.35 50.85 13.2C50.725 13.125 49.55 13.725 48.275 14.525Z" fill="#0054A6"/>
<path d="M241.25 18.125V20.75H245.625H250V18.125C250 15.5 250 15.5 249.375 15.5C248.8 15.5 248.775 15.575 248.7 17.425L248.625 19.375H247.375H246.125L246.05 17.55C245.975 15.825 245.95 15.75 245.375 15.75C244.8 15.75 244.775 15.825 244.7 17.55L244.625 19.375H243.625H242.625L242.55 17.425C242.475 15.575 242.45 15.5 241.875 15.5C241.25 15.5 241.25 15.5 241.25 18.125Z" fill="#0054A6"/>
<path d="M2.49988 16.475C2.49988 16.975 2.29988 16.875 11.1999 20.625C14.6499 22.075 15.7499 22.65 15.6999 22.95C15.6499 23.25 16.0499 23.525 17.1249 23.925C18.8999 24.575 19.2499 24.625 19.2499 24.15C19.2499 23.975 18.3249 23.325 17.1999 22.75C15.2499 21.75 2.79988 16 2.59988 16C2.54988 16 2.49988 16.2 2.49988 16.475Z" fill="#0054A6"/>
<path d="M49.3752 17.65C46.3002 19.025 45.7502 19.175 45.7502 18.75C45.7502 18.4 35.7752 23.325 35.7752 23.675C35.7502 23.85 35.8752 24 36.0252 24C36.4752 24 45.5502 20.225 45.8752 19.9C46.0502 19.75 47.6252 19 49.4002 18.25C53.1002 16.7 52.9252 16.8 52.6002 16.525C52.4752 16.4 51.0752 16.9 49.3752 17.65Z" fill="#0054A6"/>
<path d="M1.25 19.925C1.25 20.35 2.175 20.65 7.7 22.15C12.85 23.55 14.1 23.975 14.05 24.3C14 24.6 14.425 24.8 15.925 25.125C17 25.35 18.075 25.6 18.325 25.65C18.625 25.75 18.75 25.65 18.75 25.325C18.75 24.95 18.45 24.775 17.45 24.525C16.725 24.35 15.775 24.025 15.375 23.85C14.725 23.55 8.85 21.725 3.85 20.25C3 20 2.075 19.725 1.775 19.625C1.375 19.5 1.25 19.575 1.25 19.925Z" fill="#0054A6"/>
<path d="M49.55 20.95C46.775 21.775 45.65 22 45.525 21.8C45.275 21.375 36.25 24.4 36.25 24.9C36.25 25.1 36.325 25.25 36.4 25.25C36.9 25.25 44.7 23.15 45.575 22.775C46.15 22.525 48.275 21.875 50.325 21.35C53.5 20.525 54.525 20.05 53.6 19.85C53.475 19.825 51.65 20.325 49.55 20.95Z" fill="#0054A6"/>
<path d="M241.25 25.65C241.25 28.75 241.25 28.775 241.825 28.7C242.3 28.625 242.375 28.45 242.45 27.425L242.525 26.25H246.275H250V25.625V25H246.25H242.5V23.75C242.5 22.575 242.45 22.5 241.875 22.5H241.25V25.65Z" fill="#0054A6"/>
<path d="M0.500064 23.575C0.500064 23.825 0.800064 24.025 1.32506 24.125C2.65006 24.35 11.9251 25.5 12.3751 25.5C12.6751 25.5 12.7751 25.65 12.6751 25.975C12.5751 26.375 12.7751 26.45 14.2251 26.6C17.0001 26.85 18.5001 26.8 18.5001 26.425C18.5001 26.175 17.7251 25.95 15.9501 25.675C14.5251 25.45 11.0251 24.875 8.12506 24.4C0.400063 23.1 0.500064 23.125 0.500064 23.575Z" fill="#0054A6"/>
<path d="M49.6498 24.075C46.2998 24.575 44.8748 24.725 44.7498 24.525C44.6498 24.325 43.4498 24.45 40.6498 24.975C38.4748 25.4 36.6498 25.75 36.5998 25.8C36.5748 25.85 36.5998 26.025 36.6998 26.175C36.8498 26.425 37.6498 26.4 40.1248 26.1C41.9248 25.9 43.7748 25.625 44.2498 25.5C44.7248 25.35 47.2248 24.975 49.7998 24.65C52.3998 24.35 54.5748 24 54.6748 23.925C55.1998 23.375 53.8748 23.425 49.6498 24.075Z" fill="#0054A6"/>
<path d="M37.575 26.925C37.25 26.975 37 27.2 37 27.4C37 27.7 38.35 27.75 46 27.75C54.225 27.75 55 27.725 55 27.325C55 26.95 54.5 26.925 49.375 27.075C45.875 27.175 43.75 27.125 43.75 26.975C43.75 26.75 38.7 26.7 37.575 26.925Z" fill="#0054A6"/>
<path d="M0.25 27.4C0.25 27.725 0.925 27.775 5.9 27.7C11.275 27.625 11.525 27.65 11.4 28.1C11.3 28.525 11.45 28.55 14.575 28.375C17.575 28.2 18.225 28.05 18.25 27.475C18.25 27.275 10.1 27 4.575 27C0.825 27 0.25 27.05 0.25 27.4Z" fill="#0054A6"/>
<path d="M37.3001 28.65C37.4001 29.175 36.6001 29.025 47.6251 30.525C50.8001 30.95 53.7001 31.35 54.1001 31.425C54.6751 31.55 54.7751 31.5 54.7001 31.1C54.6251 30.7 53.9751 30.575 48.6751 29.95C44.4751 29.45 42.6001 29.125 42.3251 28.875C42.1001 28.65 41.5001 28.5 40.7751 28.5C40.1001 28.5 39.0251 28.425 38.3751 28.35C37.3001 28.2 37.2001 28.225 37.3001 28.65Z" fill="#0054A6"/>
<path d="M245.55 30.3C243.175 31.425 241.275 32.45 241.325 32.575C241.375 32.775 246.075 35.05 249.2 36.375C250 36.725 250 36.725 250 36.025C250 35.475 249.8 35.25 248.875 34.8L247.75 34.25V32.5V30.725L248.875 30.25C249.85 29.825 250 29.675 250 29C250 28.6 249.975 28.25 249.95 28.275C249.9 28.275 247.925 29.2 245.55 30.3ZM246.45 33.075L246.375 33.675L245.125 33.125L243.875 32.575L245.125 31.925L246.375 31.3L246.45 31.9C246.5 32.225 246.5 32.75 246.45 33.075Z" fill="#0054A6"/>
<path d="M13.6249 29.15C12.1249 29.325 8.57489 29.725 5.74989 30C2.92489 30.3 0.524893 30.65 0.399893 30.775C-0.150107 31.275 1.17489 31.25 5.49989 30.65C8.02489 30.275 10.1749 30 10.2999 30C10.4249 30 10.4499 30.225 10.3749 30.5C10.2249 30.95 10.2999 31 10.7999 30.9C11.1249 30.825 12.6249 30.525 14.1249 30.25C17.0999 29.675 17.9999 29.4 17.9999 29C17.9999 28.7 17.1499 28.725 13.6249 29.15Z" fill="#0054A6"/>
<path d="M37.25 30.1C37.25 30.325 37.75 30.625 38.575 30.85C39.275 31.05 42.875 32.075 46.55 33.1C50.2 34.15 53.375 35 53.6 35C54.275 35 54.05 34.275 53.325 34.1C52.925 34 50.075 33.275 46.975 32.475C43.85 31.65 41.225 31 41.15 31C41.075 31 41 30.85 41 30.675C41 30.475 40.425 30.225 39.55 30.05C37.65 29.65 37.25 29.675 37.25 30.1Z" fill="#0054A6"/>
<path d="M13.9999 31C11.9999 31.525 8.29994 32.475 5.77494 33.1C3.22494 33.75 1.09994 34.3 1.04994 34.35C0.999939 34.425 1.02494 34.575 1.09994 34.7C1.17494 34.825 3.07494 34.425 5.52494 33.75L9.79994 32.55L9.62494 33.175C9.49994 33.725 9.54994 33.775 9.92494 33.625C10.1749 33.55 12.0249 32.9 14.0749 32.2C17.0749 31.175 17.7499 30.85 17.7499 30.475C17.7499 30.2 17.7249 30 17.6999 30.025C17.6499 30.025 15.9999 30.475 13.9999 31Z" fill="#0054A6"/>
<path d="M37.375 31.45C37.2 31.925 37.775 32.425 38.75 32.675C39.1 32.775 42.325 34.15 45.95 35.775C51.075 38.05 52.575 38.625 52.675 38.35C52.75 38.15 52.725 37.9 52.625 37.8C52.55 37.7 49.575 36.45 46.05 34.975C42.525 33.525 39.65 32.225 39.675 32.1C39.7 31.95 39.225 31.675 38.625 31.45C37.625 31.075 37.525 31.075 37.375 31.45Z" fill="#0054A6"/>
<path d="M14.25 33.025C12.4 33.825 10.475 34.625 10 34.775C8.175 35.35 2.25 37.85 2.25 38.05C2.25 38.45 2.975 38.225 6.025 36.9L9.125 35.525L9.2 36.125C9.275 36.725 9.375 36.675 13.5 34.625C15.825 33.475 17.8 32.4 17.875 32.225C18.35 31.475 17.325 31.7 14.25 33.025Z" fill="#0054A6"/>
<path d="M37.1751 33C37.0751 33.4 38.1501 34.175 43.8501 37.725C49.7751 41.4 50.6751 41.9 51.0001 41.6C51.3251 41.275 51.3251 41.2 51.0001 41C50.8001 40.85 47.7751 39.125 44.3001 37.1C40.8501 35.1 38.0501 33.35 38.1251 33.25C38.2001 33.125 38.0501 32.9 37.7751 32.775C37.4001 32.55 37.2751 32.6 37.1751 33Z" fill="#0054A6"/>
<path d="M13.675 35.625C11.5 36.925 9.65 38 9.55 38C9.1 38 4 41.15 4 41.425C4 41.825 4.1 41.775 6.975 40C8.125 39.325 9.15 38.75 9.275 38.75C9.4 38.75 9.5 38.975 9.5 39.25C9.5 39.525 9.55 39.75 9.625 39.75C9.95 39.75 18.125 33.95 18.125 33.7C18.125 33.075 17.475 33.35 13.675 35.625Z" fill="#0054A6"/>
<path d="M14.5002 37.775C12.5002 39.425 10.5502 40.95 10.1252 41.175C8.87518 41.85 6.00018 44.3 6.15018 44.55C6.27518 44.75 6.90018 44.275 9.57518 42.025C9.97518 41.675 10.0252 41.7 10.1752 42.225C10.2502 42.575 10.4502 42.725 10.6752 42.65C10.8752 42.575 12.7502 40.95 14.8752 39.075C18.3502 35.95 19.1002 35.05 18.3752 34.85C18.2502 34.8 16.5002 36.125 14.5002 37.775Z" fill="#0054A6"/>
<path d="M36.8001 35.05C36.8751 35.225 39.5251 37.55 42.7501 40.2C48.0001 44.575 48.6001 45 48.9501 44.65C49.1751 44.425 49.3001 44.225 49.2251 44.175C48.8001 43.85 39.8001 36.9 38.6001 35.95C37.0001 34.725 36.6251 34.525 36.8001 35.05Z" fill="#0054A6"/>
<path d="M13.8248 41.7C10.8998 44.65 8.57481 47.15 8.62481 47.225C8.69981 47.3 9.29981 46.8 9.97482 46.15C11.1748 44.95 11.1998 44.95 11.5748 45.5C11.9498 46.025 12.0498 45.925 15.6748 41.625C19.2748 37.325 19.7498 36.675 19.3248 36.425C19.2248 36.35 16.7248 38.725 13.8248 41.7Z" fill="#0054A6"/>
<path d="M35.9249 36.425C35.7499 36.575 36.4749 37.45 39.3499 40.5C40.1999 41.4 42.0499 43.4 43.4749 44.95C45.5749 47.225 46.1249 47.7 46.4249 47.475C46.5999 47.3 46.7249 47.075 46.6999 46.975C46.6249 46.8 36.2499 36.25 36.1249 36.25C36.0999 36.25 35.9999 36.325 35.9249 36.425Z" fill="#0054A6"/>
<path d="M241.25 37.35C241.25 38 241.7 38.225 245.2 39.375C245.925 39.6 246.45 39.875 246.375 39.975C246.3 40.05 245.15 40.525 243.825 41C242.5 41.475 241.375 41.975 241.325 42.125C241.3 42.25 242.35 42.75 243.7 43.225C245.025 43.7 246.225 44.15 246.325 44.25C246.5 44.4 244.025 45.425 241.825 46.1C241.4 46.225 241.25 46.475 241.25 47V47.7L243.95 46.75C249.125 44.9 249.825 44.625 249.925 44.375C249.95 44.225 248.75 43.7 247.25 43.175C245.725 42.625 244.5 42.175 244.5 42.125C244.5 42.1 245.75 41.625 247.25 41.1C248.775 40.575 249.975 40.025 249.925 39.9C249.85 39.675 242.175 36.8 241.575 36.775C241.4 36.75 241.25 37.025 241.25 37.35Z" fill="#0054A6"/>
<path d="M34.875 37.75C34.775 37.925 34.9 38.35 35.175 38.7C35.45 39.075 37.225 41.625 39.125 44.375C43.275 50.4 43.025 50.1 43.6 49.675C44 49.4 43.625 48.85 39.6 43.5C37.175 40.275 35.15 37.6 35.125 37.55C35.075 37.5 34.975 37.6 34.875 37.75Z" fill="#0054A6"/>
<path d="M16.95 42.025C15.275 44.4 13.275 47 12.575 47.85C11.85 48.675 11.25 49.45 11.25 49.55C11.25 50.025 11.75 49.675 12.25 48.875C12.875 47.875 12.925 47.85 13.55 48.425C13.8 48.65 14.05 48.775 14.075 48.725C14.125 48.675 15.65 46.275 17.45 43.425C20.45 38.725 20.925 37.75 20.25 37.75C20.15 37.75 18.65 39.675 16.95 42.025Z" fill="#0054A6"/>
<path d="M33.6252 39.05C33.5252 39.325 34.5752 41.65 36.6752 45.7C39.7252 51.625 39.9252 51.925 40.4002 51.675C40.9002 51.375 40.8002 51.15 37.7002 45.625C35.9252 42.45 34.3252 39.6 34.1252 39.25C33.8502 38.725 33.7752 38.675 33.6252 39.05Z" fill="#0054A6"/>
<path d="M19.1248 43.175C16.3748 48.375 15.8748 49.275 15.1248 50.425C14.4748 51.375 14.2498 52.2 14.8748 51.4C15.0748 51.15 15.2748 50.8 15.3248 50.65C15.3998 50.475 15.6248 50.55 15.9748 50.85C16.2498 51.125 16.5498 51.275 16.5998 51.225C16.6498 51.175 17.8998 48.5 19.3498 45.3C21.7748 40.025 22.1248 39 21.5248 39C21.3998 39 20.3248 40.875 19.1248 43.175Z" fill="#0054A6"/>
<path d="M20.65 46.05C19.425 49.4 18.35 52.175 18.25 52.25C17.95 52.475 17.75 53.25 18 53.25C18.15 53.25 18.25 53.125 18.25 52.975C18.25 52.8 18.525 52.775 18.975 52.875C19.8 53.05 19.5 53.8 21.975 45.7C23.6 40.475 23.7 40 23.175 40C23 40 21.95 42.475 20.65 46.05Z" fill="#0054A6"/>
<path d="M33.9998 46.5C35.2248 50.1 36.2998 53.125 36.3748 53.25C36.4498 53.35 36.7248 53.4 37.0248 53.325C37.7248 53.125 37.7248 53.2 34.9248 46.125C33.3748 42.2 32.3998 40.1 32.1498 40.05C31.8498 39.975 32.2998 41.575 33.9998 46.5Z" fill="#0054A6"/>
<path d="M30.175 40.675C30.125 40.8 30.6 43.525 31.25 46.75C31.9 49.975 32.5 53.025 32.6 53.525C32.75 54.325 32.825 54.425 33.375 54.3C33.725 54.25 34 54.1 34 54C34 53.8 31.45 43.175 30.975 41.425C30.75 40.55 30.425 40.25 30.175 40.675Z" fill="#0054A6"/>
<path d="M24.5002 40.875C24.5002 40.95 23.8752 43.9 23.1252 47.4C22.3752 50.925 21.8002 53.9 21.8752 54.025C21.9752 54.15 22.2752 54.25 22.6002 54.25C23.1502 54.25 23.2002 54.025 24.2002 47.8C24.7752 44.275 25.2502 41.225 25.2502 41.05C25.2502 40.9 25.0752 40.75 24.8752 40.75C24.6752 40.75 24.5002 40.8 24.5002 40.875Z" fill="#0054A6"/>
<path d="M26.4749 41.05C26.4499 41.1 26.1999 44.15 25.8999 47.875C25.3499 54.725 25.3749 55 26.2749 55C26.6499 55 26.7249 54.55 26.8499 51.675C27.1999 43.25 27.2249 41 26.8499 41C26.6499 41 26.4749 41.025 26.4749 41.05Z" fill="#0054A6"/>
<path d="M28.35 42.925C28.425 44 28.625 47 28.75 49.625C28.9 52.225 29.075 54.5 29.125 54.65C29.175 54.825 29.5 54.875 29.85 54.825C30.425 54.7 30.5 54.6 30.375 53.9C30.3 53.475 30.025 50.925 29.75 48.25C29.025 41.175 29 41 28.575 41C28.25 41 28.225 41.3 28.35 42.925Z" fill="#0054A6"/>
<path d="M47.25 51.225C47.25 51.35 47.5 51.5 47.825 51.55C48.325 51.625 48.375 51.775 48.45 53.3C48.55 55.55 49 55.5 49 53.25C49 51.55 49.025 51.5 49.625 51.5C49.975 51.5 50.25 51.375 50.25 51.25C50.25 51.1 49.575 51 48.75 51C47.925 51 47.25 51.1 47.25 51.225Z" fill="#0054A6"/>
<path d="M51.0501 52.925C51.1251 55.075 51.5751 55.575 51.7001 53.65L51.7751 52.45L52.4001 53.025L53.0001 53.575L53.6001 53.025L54.2251 52.45L54.3001 53.65C54.3501 54.325 54.5001 54.85 54.6251 54.825C54.9001 54.75 55.1251 51 54.8251 51C54.7251 51 54.2751 51.35 53.8251 51.8L53.0001 52.6L52.1751 51.8C51.7251 51.35 51.2751 51 51.1751 51C51.0751 51 51.0001 51.875 51.0501 52.925Z" fill="#0054A6"/>
</g>
<defs>
<clipPath id="clip0_3447_390">
<rect width="250" height="55.25" fill="white"/>
</clipPath>
</defs>
</svg>
