<svg width="120" height="32" viewBox="0 0 120 32" fill="none" xmlns="http://www.w3.org/2000/svg">
<g clip-path="url(#clip0_10_332)">
<mask id="mask0_10_332" style="mask-type:luminance" maskUnits="userSpaceOnUse" x="0" y="0" width="120" height="32">
<path d="M120 0H0V32H120V0Z" fill="white"/>
</mask>
<g mask="url(#mask0_10_332)">
<path d="M11.6031 0C13.8554 0 15.8416 0.417553 17.5614 1.25266C19.2265 2.03599 20.6184 3.28203 21.5629 4.83488C22.5035 6.3888 22.9738 8.19159 22.9738 10.2433C22.9738 12.2949 22.5017 14.0897 21.5575 15.6278C20.6112 17.1697 19.2246 18.4075 17.5683 19.1889C15.8438 20.024 13.8577 20.4415 11.6099 20.4415H6.74752V30.7733H0V0H11.6031ZM6.74752 14.9473H10.9746C12.563 14.9473 13.8216 14.5222 14.7505 13.6722C15.6794 12.8221 16.1443 11.6792 16.1451 10.2433C16.1451 8.77827 15.6802 7.62032 14.7505 6.76936C13.8207 5.9184 12.5622 5.49336 10.9746 5.49424H6.74752V14.9473Z" fill="#E6A400"/>
<path d="M47.4017 13.4037H44.407V8.17637H47.4017V1.8457H53.7411V8.17637H59.0021V13.4037H53.7411V22.7061C53.7411 23.499 53.8763 24.3287 54.4304 24.7516C55.6466 25.6766 59.0075 24.8375 59.0075 24.8375V30.0239C59.0075 30.0239 57.3088 30.7731 54.0073 30.7731C49.9531 30.7731 47.3977 28.6191 47.3977 24.3103L47.4017 13.4037Z" fill="#E6A400"/>
<path d="M23.2439 13.3852C24.1803 11.6796 25.6014 10.2754 27.3358 9.34186C29.089 8.38956 31.1198 7.913 33.4279 7.91211C35.7658 7.91211 37.8267 8.35917 39.6106 9.25327C41.342 10.1014 42.7918 11.4123 43.7919 13.0337C44.7963 14.6598 45.313 16.5723 45.3418 18.7711C45.3495 19.4797 45.2896 20.1874 45.1635 20.8853H28.3926V21.061C28.5412 22.7039 29.0818 23.9936 30.0143 24.9299C30.9467 25.8663 32.2206 26.3355 33.8361 26.3372C35.1253 26.3372 36.1969 26.0659 37.051 25.5232C37.9051 24.9806 38.4673 24.1821 38.7375 23.1276H44.9864C44.756 24.5984 44.152 25.9889 43.2296 27.1723C42.2619 28.4036 40.9946 29.3784 39.543 30.008C38.0114 30.6969 36.2578 31.0408 34.2821 31.04C31.7036 31.04 29.4778 30.5713 27.6047 29.634C25.7859 28.7474 24.2823 27.3458 23.2897 25.6118C22.2843 23.8677 21.782 21.838 21.783 19.5229C21.783 17.1753 22.2698 15.1294 23.2439 13.3852ZM39.0024 16.8393C38.7925 15.4624 38.2155 14.4 37.2713 13.6521C36.3271 12.9043 35.1361 12.5306 33.6982 12.5316C32.318 12.5316 31.1563 12.9196 30.213 13.6957C29.2696 14.4718 28.7076 15.5197 28.5264 16.8393H39.0024Z" fill="#E6A400"/>
<path d="M65.0753 10.826C65.0753 12.8397 66.5915 13.6272 68.4645 13.6272C70.524 13.6272 71.2917 12.6389 71.2917 11.6451C71.2917 10.6515 70.7294 10.2353 70.1876 10.0345C69.251 9.68699 68.0335 9.4478 66.1983 8.95359C63.913 8.34973 63.2388 6.99401 63.2388 5.6396C63.2388 3.02066 65.7117 1.79443 68.1267 1.79443C70.9173 1.79443 73.262 3.24132 73.262 5.96864H70.9213C70.8092 4.28389 69.6484 3.66152 68.0376 3.66152C66.9564 3.66152 65.5848 4.04604 65.5848 5.36476C65.5848 6.28047 66.2213 6.79316 67.1767 7.0495C67.3821 7.10501 70.3403 7.85553 71.0336 8.05639C71.7807 8.25661 72.44 8.69108 72.9102 9.29305C73.3803 9.89508 73.6355 10.6314 73.6363 11.3889C73.6363 14.3197 70.9782 15.485 68.3185 15.485C65.2657 15.485 62.7941 14.0567 62.7373 10.8167L65.0753 10.826Z" fill="#9F5D03"/>
<path d="M83.2894 15.1838H81.192V13.8625H81.1541C80.6299 14.8152 79.4691 15.4376 78.4014 15.4376C75.8729 15.4376 74.7864 14.1915 74.7864 11.7206V5.71631H76.9217V11.521C76.9217 13.1874 77.6149 13.7925 78.7758 13.7925C80.5556 13.7925 81.1541 12.6746 81.1541 11.2105V5.71631H83.2894V15.1838Z" fill="#9F5D03"/>
<path d="M84.9189 5.71631H86.9461V6.99803H86.9825C87.5826 5.91847 88.7394 5.45996 89.9785 5.45996C93.0313 5.45996 94.5115 7.73138 94.5115 10.4957C94.5115 13.0406 93.2005 15.4403 90.3354 15.4403C89.0989 15.4403 87.7678 15.0002 87.0921 13.9564H87.0542V18.4687H84.9189V5.71631ZM89.6948 7.10903C87.8961 7.10903 86.9785 8.44493 86.9785 10.46C86.9785 12.3642 87.9717 13.7925 89.6948 13.7925C91.6422 13.7925 92.3719 12.1078 92.3719 10.46C92.3719 8.73827 91.4543 7.10903 89.6948 7.10903Z" fill="#9F5D03"/>
<path d="M97.3451 10.9899C97.3451 12.4738 98.1697 13.7925 99.9475 13.7925C101.185 13.7925 101.933 13.2639 102.308 12.2174H104.334C103.866 14.2867 102.068 15.4403 99.9522 15.4403C96.918 15.4403 95.2141 13.371 95.2141 10.46C95.2141 7.76706 97.0113 5.45996 99.8949 5.45996C102.948 5.45996 104.822 8.15159 104.466 10.9899H97.3451ZM102.326 9.61694C102.252 8.2956 101.334 7.10638 99.8939 7.10638C98.4157 7.10638 97.4033 8.20444 97.3479 9.61694H102.326Z" fill="#9F5D03"/>
<path d="M105.482 5.71662H107.486V7.54803H107.524C107.767 6.54115 109.042 5.46028 110.352 5.46028C110.624 5.45726 110.896 5.47582 111.163 5.51576V7.52954C110.86 7.48145 110.553 7.45101 110.246 7.43836C108.785 7.43836 107.624 8.59191 107.624 10.6796V15.1841H105.488L105.482 5.71662Z" fill="#9F5D03"/>
<path d="M63.2454 21.306H65.2723V22.6274H65.3292C65.9656 21.6931 66.771 21.0522 68.3022 21.0522C69.4819 21.0522 70.5874 21.5478 71.0172 22.6274C71.7293 21.6574 72.6469 21.0522 74.051 21.0522C76.0929 21.0522 77.2943 21.9323 77.2943 24.2394V30.7762H75.1591V25.2436C75.1591 23.7426 75.066 22.6987 73.4024 22.6987C71.9605 22.6987 71.3428 23.6315 71.3428 25.2251V30.7749H69.1915V24.6966C69.1915 23.3963 68.7861 22.7012 67.4873 22.7012C66.3832 22.7012 65.3711 23.58 65.3711 25.155V30.7762H63.2454V21.306Z" fill="#9F5D03"/>
<path d="M87.0083 28.6672C87.0083 29.18 87.1204 29.3821 87.5137 29.3821C87.6892 29.3852 87.8648 29.3728 88.0381 29.3451V30.7986C87.5998 30.9342 87.1457 31.0142 86.6867 31.0364C85.8244 31.0364 85.2001 30.743 85.038 29.8829C84.1947 30.689 82.8285 31.0364 81.6865 31.0364C79.9445 31.0364 78.3716 30.1207 78.3716 28.2708C78.3716 25.9096 80.3 25.525 82.0973 25.3229C83.6339 25.048 85.0002 25.2132 85.0002 23.987C85.0002 22.906 83.8582 22.7051 82.9973 22.7051C81.7986 22.7051 80.9554 23.1809 80.8621 24.2063H78.727C78.877 21.771 80.9933 21.0562 83.1285 21.0562C85.0204 21.0562 87.0043 21.808 87.0043 23.8034L87.0083 28.6672ZM84.873 26.0246C84.219 26.4447 83.1879 26.4275 82.2513 26.5913C81.3148 26.7552 80.5094 27.0684 80.5094 28.1664C80.5094 29.1006 81.7257 29.3755 82.4771 29.3755C83.4122 29.3755 84.873 28.8985 84.873 27.581V26.0246Z" fill="#9F5D03"/>
<path d="M88.7869 21.3054H90.791V23.1368H90.8288C91.0721 22.13 92.3452 21.0491 93.6565 21.0491C93.9274 21.0462 94.1982 21.0648 94.4663 21.1045V23.1184C94.1631 23.0704 93.8571 23.0398 93.5492 23.0272C92.0883 23.0272 90.9275 24.1807 90.9275 26.2684V30.7731H88.7869V21.3054Z" fill="#9F5D03"/>
<path d="M94.9812 18.4688H97.1168V25.1337L100.975 21.3017H103.597L99.8884 24.7808L103.952 30.7693H101.355L98.3954 26.1735L97.1223 27.3812V30.7693H94.9867L94.9812 18.4688Z" fill="#9F5D03"/>
<path d="M105.528 26.5793C105.528 28.0631 106.351 29.3818 108.13 29.3818C109.366 29.3818 110.115 28.8533 110.491 27.8068H112.517C112.048 29.876 110.25 31.0296 108.135 31.0296C105.101 31.0296 103.397 28.9604 103.397 26.0494C103.397 23.3577 105.194 21.0493 108.078 21.0493C111.131 21.0493 113.004 23.7423 112.648 26.5793H105.528ZM110.509 25.2063C110.434 23.8849 109.515 22.6958 108.077 22.6958C106.599 22.6958 105.586 23.7938 105.531 25.2063H110.509Z" fill="#9F5D03"/>
<path d="M112.631 21.3056H114.242V18.4688H116.377V21.3056H118.305V22.8622H116.377V27.9163C116.377 28.7766 116.451 29.2167 117.407 29.2167C117.708 29.2286 118.011 29.2042 118.305 29.144V30.7547C117.838 30.7917 117.387 30.8644 116.92 30.8644C114.691 30.8644 114.279 30.0226 114.242 28.4476V22.8622H112.631V21.3056Z" fill="#9F5D03"/>
<path d="M117.928 17.9256H117.599V17.6982H118.538V17.9256H118.205V18.8941H117.928V17.9256Z" fill="#9F5D03"/>
<path d="M119.713 18.4369C119.713 18.2929 119.701 18.1211 119.701 17.9454C119.662 18.0973 119.611 18.2678 119.566 18.4078L119.418 18.8742H119.193L119.059 18.4119C119.017 18.2717 118.978 18.1026 118.947 17.9454C118.947 18.1066 118.935 18.2915 118.929 18.4409L118.904 18.8941H118.653L118.732 17.7049H119.099L119.218 18.1013C119.259 18.24 119.295 18.3894 119.321 18.5294C119.355 18.3972 119.397 18.2334 119.438 18.1L119.574 17.7036H119.934L120 18.8928H119.729L119.713 18.4369Z" fill="#9F5D03"/>
</g>
</g>
<defs>
<clipPath id="clip0_10_332">
<rect width="120" height="32" fill="white"/>
</clipPath>
</defs>
</svg>
