<svg width="60" height="41" viewBox="0 0 60 41" fill="none" xmlns="http://www.w3.org/2000/svg">
<path d="M27.1488 2.5085C28.2453 1.40429 29.7719 0.719431 31.4603 0.719431C33.7047 0.719431 35.6628 1.92897 36.7056 3.72455C37.6118 3.33326 38.6148 3.11557 39.6702 3.11557C43.7182 3.11557 47 6.31499 47 10.2614C47 14.2083 43.7182 17.4078 39.6702 17.4078C39.1853 17.408 38.7016 17.3615 38.2264 17.2687C37.3081 18.8518 35.5582 19.9214 33.5497 19.9214C32.7089 19.9214 31.9136 19.7337 31.2055 19.3999C30.2746 21.5162 28.1058 23 25.5781 23C22.9457 23 20.7023 21.3903 19.8412 19.1327C19.4649 19.2099 19.075 19.2502 18.6749 19.2502C15.5408 19.2502 13 16.7693 13 13.7085C13 11.6573 14.1416 9.86636 15.8377 8.90819C15.4885 8.13166 15.2943 7.27457 15.2943 6.37347C15.2943 2.85345 18.2511 0 21.8981 0C24.0393 0 25.9423 0.983923 27.1488 2.5085Z" fill="white"/>
<path d="M0.0179954 36.3733C-0.0319252 36.5028 0.0361775 36.5298 0.0520468 36.5523C0.201809 36.6604 0.353963 36.7381 0.507153 36.8248C1.31968 37.2526 2.08691 37.3775 2.88923 37.3775C4.52337 37.3775 5.53789 36.5151 5.53789 35.1268V35.0998C5.53789 33.8162 4.3929 33.3501 3.31818 33.0135L3.17862 32.9684C2.36833 32.7072 1.66928 32.4821 1.66928 31.9529V31.9248C1.66928 31.4722 2.07782 31.1388 2.71107 31.1388C3.41467 31.1388 4.24992 31.3708 4.7878 31.6658C4.7878 31.6658 4.94554 31.7671 5.00343 31.6151C5.03517 31.534 5.30758 30.8067 5.33597 30.7279C5.36659 30.6423 5.31213 30.5792 5.25654 30.5454C4.64259 30.175 3.7937 29.9217 2.91538 29.9217L2.75198 29.9228C1.25628 29.9228 0.212255 30.819 0.212255 32.1037V32.1307C0.212255 33.4852 1.3641 33.9243 2.44337 34.2306L2.61698 34.2835C3.40342 34.5233 4.08094 34.7293 4.08094 35.2788V35.3059C4.08094 35.808 3.64067 36.1818 2.93021 36.1818C2.65446 36.1818 1.77494 36.1762 0.825098 35.5805C0.710424 35.514 0.643517 35.4657 0.555 35.4128C0.508508 35.3835 0.391602 35.3328 0.340565 35.4859L0.0179954 36.3733ZM23.9414 36.3733C23.8915 36.5028 23.9596 36.5298 23.9755 36.5523C24.1252 36.6604 24.2774 36.7381 24.4305 36.8248C25.243 37.2526 26.0103 37.3775 26.8126 37.3775C28.4467 37.3775 29.4613 36.5151 29.4613 35.1268V35.0998C29.4613 33.8162 28.3163 33.3501 27.2415 33.0135L27.102 32.9684C26.2917 32.7072 25.5926 32.4821 25.5926 31.9529V31.9248C25.5926 31.4722 26.0011 31.1388 26.6344 31.1388C27.3379 31.1388 28.1732 31.3708 28.7112 31.6658C28.7112 31.6658 28.8689 31.7671 28.9267 31.6151C28.9585 31.534 29.2309 30.8067 29.2592 30.7279C29.29 30.6423 29.2354 30.5792 29.1798 30.5454C28.5659 30.175 27.717 29.9217 26.8387 29.9217L26.6752 29.9228C25.1795 29.9228 24.1355 30.819 24.1355 32.1037V32.1307C24.1355 33.4852 25.2873 33.9243 26.3666 34.2306L26.5402 34.2835C27.3266 34.5233 28.0053 34.7293 28.0053 35.2788V35.3059C28.0053 35.808 27.5639 36.1818 26.8534 36.1818C26.5777 36.1818 25.6982 36.1762 24.7484 35.5805C24.6337 35.514 24.5657 35.4679 24.4795 35.4128C24.4499 35.3936 24.3115 35.3407 24.2638 35.4859L23.9414 36.3733ZM40.2734 33.6539C40.2734 34.4387 40.1258 35.0568 39.8353 35.4937C39.5482 35.9261 39.1135 36.1366 38.5076 36.1366C37.9005 36.1366 37.4682 35.9272 37.1855 35.4937C36.8995 35.058 36.7544 34.4387 36.7544 33.6539C36.7544 32.8703 36.8995 32.2533 37.1855 31.8209C37.4682 31.3931 37.9005 31.1848 38.5076 31.1848C39.1136 31.1848 39.5482 31.3931 39.8365 31.8209C40.1259 32.2532 40.2734 32.8703 40.2734 33.6539ZM41.6375 32.1993C41.5035 31.7499 41.2947 31.3536 41.0167 31.0238C40.7387 30.6927 40.3869 30.4271 39.9692 30.2334C39.5527 30.0409 39.0603 29.9429 38.5076 29.9429C37.9538 29.9429 37.4613 30.0409 37.0448 30.2334C36.6272 30.4271 36.2754 30.6928 35.9962 31.0238C35.7193 31.3548 35.5105 31.7511 35.3755 32.1993C35.2427 32.6462 35.1757 33.1348 35.1757 33.6539C35.1757 34.173 35.2427 34.6628 35.3755 35.1086C35.5105 35.5567 35.7182 35.9531 35.9974 36.2841C36.2754 36.6151 36.6284 36.8797 37.0449 37.0677C37.4624 37.2557 37.9538 37.3514 38.5077 37.3514C39.0603 37.3514 39.5517 37.2557 39.9693 37.0677C40.3858 36.8797 40.7387 36.615 41.0168 36.2841C41.2948 35.9542 41.5036 35.5579 41.6376 35.1086C41.7715 34.6617 41.8384 34.1718 41.8384 33.6539C41.8384 33.136 41.7714 32.6462 41.6375 32.1993ZM52.8391 35.927C52.7937 35.7953 52.6655 35.8448 52.6655 35.8448C52.4669 35.9203 52.2557 35.9901 52.0311 36.025C51.8029 36.0598 51.5521 36.0779 51.2832 36.0779C50.6228 36.0779 50.0985 35.8831 49.7229 35.498C49.3461 35.113 49.135 34.4904 49.1372 33.6482C49.1395 32.8814 49.3256 32.3049 49.6604 31.8658C49.993 31.429 50.4991 31.2049 51.1743 31.2049C51.7372 31.2049 52.1662 31.2691 52.6155 31.4098C52.6155 31.4098 52.7233 31.4559 52.7743 31.3164C52.8934 30.9875 52.982 30.7522 53.1091 30.3908C53.1454 30.2884 53.0569 30.2445 53.0251 30.232C52.8481 30.1634 52.4304 30.052 52.115 30.0047C51.8199 29.9596 51.4749 29.936 51.0914 29.936C50.5182 29.936 50.0075 30.0328 49.5707 30.2265C49.1349 30.419 48.765 30.6847 48.4722 31.0158C48.1794 31.3468 47.957 31.7431 47.8083 32.1912C47.6608 32.6381 47.5859 33.1291 47.5859 33.6482C47.5859 34.7707 47.8912 35.6781 48.4938 36.3425C49.0975 37.0091 50.0043 37.3479 51.1868 37.3479C51.8859 37.3479 52.6031 37.2072 53.1183 37.0057C53.1183 37.0057 53.2171 36.9583 53.1739 36.8447L52.8391 35.927ZM55.2258 32.9021C55.2904 32.4664 55.4119 32.1038 55.5991 31.8213C55.8817 31.3923 56.3129 31.157 56.919 31.157C57.5251 31.157 57.9256 31.3934 58.2127 31.8213C58.4034 32.1038 58.4862 32.4823 58.5192 32.9021H55.2258ZM59.8185 31.9439C59.7027 31.5104 59.4156 31.0724 59.2272 30.872C58.9298 30.5545 58.6394 30.3328 58.3511 30.2089C57.9743 30.049 57.5227 29.9432 57.0279 29.9432C56.4514 29.9432 55.9282 30.0389 55.5038 30.237C55.0783 30.4352 54.7209 30.7055 54.4405 31.0421C54.1601 31.3776 53.9491 31.7773 53.8151 32.2311C53.6801 32.6826 53.612 33.1746 53.612 33.6936C53.612 34.2217 53.6824 34.7137 53.822 35.1562C53.9628 35.6021 54.1874 35.995 54.4915 36.3203C54.7945 36.648 55.1849 36.9048 55.6525 37.0837C56.1167 37.2616 56.6807 37.3539 57.3286 37.3527C58.6621 37.3482 59.3645 37.0533 59.6539 36.8945C59.7051 36.8664 59.7539 36.8169 59.6925 36.675L59.3906 35.8361C59.3453 35.7112 59.217 35.7573 59.217 35.7573C58.8867 35.8789 58.417 36.0974 57.3218 36.0952C56.6058 36.094 56.0746 35.8846 55.742 35.5569C55.4005 35.2214 55.2337 34.7282 55.2041 34.0324L59.8218 34.0369C59.8218 34.0369 59.9432 34.0347 59.9558 33.9176C59.9603 33.8682 60.1147 32.9764 59.8185 31.9439ZM18.2451 32.9021C18.3109 32.4664 18.4312 32.1038 18.6184 31.8213C18.901 31.3923 19.3322 31.157 19.9382 31.157C20.5442 31.157 20.9448 31.3934 21.233 31.8213C21.4225 32.1038 21.5054 32.4823 21.5383 32.9021H18.2451ZM22.8366 31.9439C22.7208 31.5104 22.4349 31.0724 22.2465 30.872C21.9492 30.5545 21.6586 30.3328 21.3704 30.2089C20.9936 30.049 20.542 29.9432 20.0472 29.9432C19.4719 29.9432 18.9475 30.0389 18.5231 30.237C18.0976 30.4352 17.7401 30.7055 17.4598 31.0421C17.1795 31.3776 16.9684 31.7773 16.8345 32.2311C16.7006 32.6826 16.6314 33.1746 16.6314 33.6936C16.6314 34.2217 16.7018 34.7137 16.8414 35.1562C16.9821 35.6021 17.2069 35.995 17.5109 36.3203C17.814 36.648 18.2043 36.9048 18.6719 37.0837C19.1361 37.2616 19.7 37.3539 20.348 37.3527C21.6814 37.3482 22.3839 37.0533 22.6733 36.8945C22.7244 36.8664 22.7732 36.8169 22.7119 36.675L22.4112 35.8361C22.3646 35.7112 22.2365 35.7573 22.2365 35.7573C21.9063 35.8789 21.4375 36.0974 20.3401 36.0952C19.6252 36.094 19.0941 35.8846 18.7616 35.5569C18.4199 35.2214 18.2532 34.7282 18.2236 34.0324L22.8413 34.0369C22.8413 34.0369 22.9626 34.0347 22.9752 33.9176C22.9795 33.8682 23.1339 32.9764 22.8366 31.9439ZM8.26406 35.9019C8.0836 35.7589 8.05864 35.7229 7.99739 35.6306C7.90656 35.4898 7.86007 35.2894 7.86007 35.035C7.86007 34.6318 7.99396 34.3425 8.27203 34.1477C8.26869 34.1489 8.66925 33.8043 9.61112 33.8167C10.2727 33.8257 10.8639 33.9225 10.8639 33.9225V36.0055C10.8639 36.0055 10.2783 36.1304 9.6179 36.1698C8.67826 36.2262 8.26063 35.9008 8.26406 35.9019ZM10.1013 32.6829C9.91407 32.6694 9.67117 32.6615 9.38065 32.6615C8.98464 32.6615 8.60218 32.711 8.24357 32.8067C7.88272 32.9024 7.55816 33.0522 7.27897 33.2503C7.0002 33.4477 6.77108 33.7062 6.60942 34.0058C6.44603 34.3075 6.36317 34.6633 6.36317 35.0619C6.36317 35.4673 6.43351 35.8197 6.57426 36.108C6.71501 36.3973 6.91812 36.6382 7.17681 36.8241C7.43327 37.0098 7.74994 37.146 8.11757 37.2282C8.47961 37.3104 8.89038 37.352 9.33983 37.352C9.81303 37.352 10.2851 37.3138 10.7425 37.236C11.1953 37.1595 11.7513 37.048 11.9056 37.0132C12.0138 36.9873 12.1217 36.9599 12.2291 36.931C12.3438 36.9029 12.3347 36.7812 12.3347 36.7812L12.3323 32.5917C12.3323 31.6729 12.085 30.9917 11.5981 30.5695C11.1135 30.1484 10.3997 29.9355 9.47715 29.9355C9.13097 29.9355 8.57379 29.9829 8.24014 30.0493C8.24014 30.0493 7.23128 30.243 6.81589 30.565C6.81589 30.565 6.72513 30.6213 6.77506 30.7474L7.10193 31.6189C7.14276 31.7315 7.25289 31.6932 7.25289 31.6932C7.25289 31.6932 7.28806 31.6797 7.32897 31.656C8.21757 31.1764 9.34102 31.191 9.34102 31.191C9.84039 31.191 10.224 31.2901 10.4827 31.4871C10.7346 31.6785 10.8628 31.9678 10.8628 32.5781V32.7718C10.4656 32.7155 10.1013 32.6829 10.1013 32.6829ZM47.3447 30.3223C47.3798 30.2187 47.3061 30.1691 47.2754 30.1579C47.1972 30.1275 46.8045 30.0453 46.5015 30.0262C45.9216 29.9913 45.5994 30.0881 45.311 30.2165C45.0251 30.3448 44.7074 30.5519 44.5302 30.7873V30.23C44.5302 30.1523 44.4747 30.0903 44.3975 30.0903H43.2138C43.1367 30.0903 43.0811 30.1522 43.0811 30.23V37.0632C43.0811 37.1398 43.1447 37.2028 43.2218 37.2028H44.4349C44.4721 37.2026 44.5077 37.1878 44.5338 37.1616C44.56 37.1354 44.5746 37.1 44.5745 37.0632V33.6494C44.5745 33.1912 44.6256 32.7341 44.7278 32.447C44.8276 32.1632 44.9638 31.9358 45.1318 31.7725C45.3008 31.6104 45.4926 31.4967 45.7026 31.4325C45.917 31.3672 46.1542 31.3458 46.3222 31.3458C46.5639 31.3458 46.8295 31.4077 46.8295 31.4077C46.9179 31.4178 46.9679 31.3638 46.9973 31.2838C47.0768 31.0744 47.3015 30.4472 47.3447 30.3223Z" fill="white"/>
<path d="M35.9575 27.1554C35.8099 27.1104 35.676 27.0799 35.5012 27.0473C35.3241 27.0158 35.1131 27 34.8737 27C34.0384 27 33.3802 27.2342 32.9184 27.6958C32.4587 28.1552 32.1466 28.8544 31.99 29.7743L31.9332 30.0839H30.8847C30.8847 30.0839 30.7576 30.0794 30.7303 30.2168L30.559 31.1704C30.5465 31.2606 30.5863 31.3179 30.7088 31.3179H31.729L30.694 37.0511C30.6134 37.5128 30.5203 37.8922 30.4171 38.1804C30.316 38.4642 30.2174 38.6769 30.0948 38.8323C29.9768 38.981 29.8656 39.0913 29.6726 39.1554C29.5137 39.2084 29.3299 39.2331 29.129 39.2331C29.0178 39.2331 28.8692 39.215 28.7591 39.1926C28.6502 39.1711 28.5923 39.1475 28.5094 39.1126C28.5094 39.1126 28.3903 39.0676 28.3426 39.1858C28.3051 39.2838 28.0328 40.0257 27.9998 40.117C27.9681 40.2081 28.0135 40.2791 28.0713 40.3005C28.2075 40.3478 28.3084 40.3793 28.4935 40.4232C28.75 40.4829 28.9667 40.4862 29.1698 40.4862C29.5942 40.4862 29.9823 40.4266 30.3035 40.3118C30.6258 40.1958 30.9072 39.9942 31.1569 39.7218C31.4259 39.4267 31.5949 39.1183 31.7562 38.6961C31.9161 38.2794 32.0535 37.7615 32.1624 37.1581L33.2031 31.3179H34.7237C34.7237 31.3179 34.8519 31.3224 34.8781 31.184L35.0505 30.2315C35.0619 30.1403 35.0233 30.084 34.8996 30.084H33.4232C33.4311 30.0514 33.498 29.5356 33.6672 29.0504C33.7398 28.8444 33.8759 28.6766 33.9906 28.5617C34.1042 28.4491 34.2346 28.3692 34.3777 28.323C34.524 28.2757 34.6909 28.2532 34.8736 28.2532C35.0121 28.2532 35.1493 28.269 35.2526 28.2904C35.3956 28.3208 35.4512 28.3366 35.4887 28.3479C35.6397 28.3929 35.66 28.349 35.6896 28.277L36.0425 27.3154C36.0788 27.2116 35.9892 27.1677 35.9575 27.1554ZM15.3289 37.0635C15.3289 37.1401 15.2734 37.2021 15.1962 37.2021H13.9717C13.8945 37.2021 13.84 37.1401 13.84 37.0635V27.286C13.84 27.2095 13.8945 27.1476 13.9717 27.1476H15.1962C15.2734 27.1476 15.3289 27.2095 15.3289 27.286V37.0635Z" fill="white"/>
</svg>
