<svg width="60" height="60" viewBox="0 0 60 60" fill="none" xmlns="http://www.w3.org/2000/svg">
<path d="M22.5 43.2693C25.6863 43.2693 28.2691 40.6863 28.2691 37.5C28.2691 34.3137 25.6863 31.7309 22.5 31.7309C19.3137 31.7309 16.7307 34.3137 16.7307 37.5C16.7307 40.6863 19.3137 43.2693 22.5 43.2693ZM22.5 28.2693C25.6863 28.2693 28.2691 25.6863 28.2691 22.5C28.2691 19.3137 25.6863 16.7307 22.5 16.7307C19.3137 16.7307 16.7307 19.3137 16.7307 22.5C16.7307 25.6863 19.3137 28.2693 22.5 28.2693ZM37.5 43.2693C40.6863 43.2693 43.2693 40.6863 43.2693 37.5C43.2693 34.3137 40.6863 31.7309 37.5 31.7309C34.3137 31.7309 31.7307 34.3137 31.7307 37.5C31.7307 40.6863 34.3137 43.2693 37.5 43.2693ZM37.5 28.2693C40.6863 28.2693 43.2693 25.6863 43.2693 22.5C43.2693 19.3137 40.6863 16.7307 37.5 16.7307C34.3137 16.7307 31.7307 19.3137 31.7307 22.5C31.7307 25.6863 34.3137 28.2693 37.5 28.2693ZM30 0C46.2499 0 60 13.7501 60 30C60 46.2499 46.2499 60 30 60C13.75 60 0 46.2499 0 30C0 13.7502 13.7501 0 30 0ZM30 8.07692C17.9268 8.07692 8.07693 17.5857 8.07693 29.5973C8.07693 41.6088 17.9268 51.9231 30 51.9231C42.0732 51.9231 51.9231 41.6088 51.9231 29.5973C51.9231 17.5857 42.0732 8.07692 30 8.07692Z" fill="white"/>
</svg>
