<svg width="60" height="43" viewBox="0 0 60 43" fill="none" xmlns="http://www.w3.org/2000/svg">
<path d="M28.699 7.35158V25.5724H13.3163L28.699 7.35158ZM28.699 0.780151C28.699 4.96197 25.2551 8.32236 20.9694 8.32236C16.6837 8.32236 13.3163 4.96197 13.3163 0.780151H28.699ZM31.2245 25.4977C31.2245 21.3159 34.6684 17.9555 38.9541 17.9555C43.2398 17.9555 46.6837 21.3159 46.6837 25.4977H31.2245ZM31.2245 19.0009V0.780151H46.6837L31.2245 19.0009Z" fill="black"/>
<path d="M41.7857 37.9685C41.6327 36.923 40.9439 36.1763 39.7194 36.1763C38.5714 36.1763 37.7296 36.8483 37.5 37.9685H41.7857ZM39.8724 41.0302C40.8673 41.0302 41.5561 40.6568 42.0153 40.2087L43.0867 41.3288C42.398 42.0009 41.4031 42.5237 39.8724 42.5237C37.2704 42.5237 35.5867 40.8808 35.5867 38.5659C35.5867 36.3256 37.3469 34.6081 39.5663 34.6081C42.1684 34.6081 43.5459 36.5496 43.4694 39.1633H37.5C37.7296 40.3581 38.4949 41.0302 39.8724 41.0302ZM0 40.9555L4.66837 36.3256H0.0765306V34.8321H6.81122V36.3256L2.14286 40.9555H6.88775V42.449H0V40.9555ZM14.0051 37.9685C13.852 36.923 13.1633 36.1763 11.9388 36.1763C10.7908 36.1763 9.94898 36.8483 9.71939 37.9685H14.0051ZM12.1684 41.0302C13.1633 41.0302 13.852 40.6568 14.3112 40.2087L15.3827 41.3288C14.6939 42.0009 13.699 42.5237 12.1684 42.5237C9.56633 42.5237 7.88265 40.8808 7.88265 38.5659C7.88265 36.3256 9.64286 34.6081 11.8622 34.6081C14.4643 34.6081 15.8418 36.5496 15.7653 39.1633H9.71939C10.0255 40.3581 10.7908 41.0302 12.1684 41.0302ZM32.5255 38.6405C32.5255 37.2964 31.4541 36.1763 30.0765 36.1763C28.699 36.1763 27.6276 37.2217 27.6276 38.6405C27.6276 40.0594 28.699 41.1048 30.0765 41.1048C31.4541 41.1048 32.5255 39.9847 32.5255 38.6405ZM25.9439 38.6405C25.9439 36.1763 27.7806 34.6827 29.8469 34.6827C30.8418 34.6827 31.8367 35.1308 32.449 35.8029V31.3224H34.1327V42.3743H32.449V41.3288C31.8367 42.0756 30.8418 42.5237 29.8469 42.5237C27.8571 42.5983 25.9439 41.0301 25.9439 38.6405ZM44.6173 40.8808L46.148 40.134C46.6071 40.8061 47.2194 41.2542 48.1378 41.2542C49.0561 41.2542 49.5918 40.8061 49.5918 40.2834C49.5918 39.686 48.6735 39.5366 47.6786 39.3126C46.3775 39.0139 45 38.6405 45 37.0724C45 35.8775 46.148 34.7574 47.9847 34.7574C49.4388 34.7574 50.5102 35.2801 51.1225 36.2509L49.7449 36.9977C49.3622 36.475 48.75 36.1016 47.9847 36.1016C47.0663 36.1016 46.6071 36.5496 46.6071 36.9977C46.6071 37.5204 47.2959 37.6698 48.4439 37.9685C49.7449 38.1925 51.199 38.6405 51.199 40.2087C51.199 41.2542 50.2806 42.673 48.0612 42.673C46.4541 42.5983 45.3061 42.0009 44.6173 40.8808ZM55.7143 39.0886L54.4133 40.5074V42.449H52.7296V31.397H54.4133V38.6405L57.9337 34.9068H59.9235L56.8622 38.1178L60 42.449H58.0867L55.7143 39.0886ZM20.9694 34.6827C18.9796 34.6827 17.3724 35.9522 17.3724 37.9685V42.3743H19.0561V38.1925C19.0561 36.923 19.7449 36.1763 21.0459 36.1763C22.3469 36.1763 22.8827 36.923 22.8827 38.1925V42.3743H24.5663V37.9685C24.5663 35.9522 22.8827 34.6827 20.9694 34.6827Z" fill="black"/>
</svg>
